<?xml version="1.0" encoding="UTF-8"?> <svg xmlns="http://www.w3.org/2000/svg" id="Layer_1" data-name="Layer 1" viewBox="0 0 200 200"> <defs> <style>.cls-1{fill:#e3e6ec;}.cls-2{fill:#f04e23;}.cls-3{fill:#43464e;}.cls-4{fill:#a8abb5;}.cls-5{fill:#232939;}.cls-6{fill:#fff;}.cls-7{fill:#008963;}</style> </defs> <title>badaj_jak_chcesz</title> <polygon class="cls-1" points="21 30 19 30 19 19 30 19 30 21 21 21 21 30"></polygon> <polygon class="cls-1" points="30 181 19 181 19 170 21 170 21 179 30 179 30 181"></polygon> <polygon class="cls-1" points="181 181 170 181 170 179 179 179 179 170 181 170 181 181"></polygon> <polygon class="cls-1" points="181 30 179 30 179 21 170 21 170 19 181 19 181 30"></polygon> <rect class="cls-2" x="159" y="115" width="2" height="12.5"></rect> <rect class="cls-2" x="154" y="100" width="2" height="27.5"></rect> <rect class="cls-2" x="149" y="120" width="2" height="7.5"></rect> <rect class="cls-2" x="144" y="122.5" width="2" height="5"></rect> <rect class="cls-2" x="139" y="125" width="2" height="2.5"></rect> <rect class="cls-2" x="134" y="122.5" width="2" height="5"></rect> <rect class="cls-2" x="129" y="125" width="2" height="2.5"></rect> <rect class="cls-2" x="124" y="122.5" width="2" height="5"></rect> <rect class="cls-2" x="119" y="120" width="2" height="7.5"></rect> <rect class="cls-2" x="114" y="125" width="2" height="2.5"></rect> <rect class="cls-2" x="109" y="122.5" width="2" height="5"></rect> <rect class="cls-1" x="109" y="161.03" width="2" height="3.89"></rect> <rect class="cls-1" x="114" y="155.17" width="2" height="9.75"></rect> <rect class="cls-1" x="119" y="157.42" width="2" height="7.5"></rect> <rect class="cls-1" x="124" y="159.92" width="2" height="5"></rect> <rect class="cls-1" x="129" y="162.42" width="2" height="2.5"></rect> <rect class="cls-1" x="134" y="159.92" width="2" height="5"></rect> <rect class="cls-1" x="139" y="162.42" width="2" height="2.5"></rect> <rect class="cls-1" x="144" y="159.92" width="2" height="5"></rect> <rect class="cls-1" x="149" y="151.17" width="2" height="13.75"></rect> <rect class="cls-1" x="154" y="143.08" width="2" height="21.84"></rect> <rect class="cls-1" x="159" y="159.92" width="2" height="5"></rect> <path class="cls-3" d="M161,88H124V39h37Zm-35-2h33V41H126Z"></path> <rect class="cls-3" x="135.48" y="49" width="14.52" height="2"></rect> <rect class="cls-3" x="130.48" y="54" width="24.52" height="2"></rect> <rect class="cls-3" x="130.48" y="59" width="24.52" height="2"></rect> <rect class="cls-3" x="130.48" y="64" width="24.52" height="2"></rect> <rect class="cls-3" x="150" y="74" width="5" height="2"></rect> <path class="cls-4" d="M121.77,94.67a8.32,8.32,0,1,1,0-16.64H105.13a16.64,16.64,0,0,1,0-33.27h13.2A45,45,0,0,0,56.73,40H70a10,10,0,0,1,0,20H60a5,5,0,0,1,0,10H40.28a44.78,44.78,0,0,0,0,10H50a5,5,0,0,1,0,10H42.57a45,45,0,0,0,70.7,20H103.5a5,5,0,0,1,0-10h18.92a46,46,0,0,0,3.06-5.33ZM80,104.67H65a5,5,0,0,1,0-10H80a5,5,0,0,1,0,10Z"></path> <path class="cls-1" d="M65,65a5,5,0,0,0-5-5H70a10,10,0,0,0,0-20H56.73A44.94,44.94,0,0,0,40.28,70H60A5,5,0,0,0,65,65Z"></path> <path class="cls-1" d="M55,85a5,5,0,0,0-5-5H40.28a44.77,44.77,0,0,0,2.29,10H50A5,5,0,0,0,55,85Z"></path> <path class="cls-1" d="M88.5,61.4A16.63,16.63,0,0,0,105.13,78h16.64a8.32,8.32,0,1,0,0,16.64h3.71a45,45,0,0,0-7.15-49.91h-13.2A16.64,16.64,0,0,0,88.5,61.4Z"></path> <path class="cls-1" d="M98.5,105a5,5,0,0,0,5,5h9.77a45.1,45.1,0,0,0,9.15-10H103.5A5,5,0,0,0,98.5,105Z"></path> <path class="cls-1" d="M80,94.67H65a5,5,0,0,0,0,10H80a5,5,0,0,0,0-10Z"></path> <path class="cls-5" d="M154.7,157.88l-33.24-33.23,6.72-6.72,33.23,33.24Zm-30.41-33.23,30.41,30.41,3.89-3.89-30.41-30.41Z"></path> <path class="cls-5" d="M104.31,137.28a36.5,36.5,0,1,1,25.81-10.69A36.22,36.22,0,0,1,104.31,137.28Zm0-71a34.5,34.5,0,1,0,24.39,10.11A34.27,34.27,0,0,0,104.32,66.28Z"></path> <path class="cls-5" d="M104.31,131.78a31,31,0,1,1,21.93-9.07A30.82,30.82,0,0,1,104.31,131.78Zm0-60a29,29,0,1,0,20.5,8.5A28.81,28.81,0,0,0,104.32,71.78Z"></path> <path class="cls-6" d="M80.31,100.78h-2a26,26,0,0,1,26-26v2A24,24,0,0,0,80.31,100.78Z"></path> <rect class="cls-5" x="51.07" y="125.51" width="2" height="18.99" transform="translate(-90.11 108.17) rotate(-58.22)"></rect> <rect class="cls-5" x="56.51" y="132" width="17.12" height="2" transform="translate(-81.14 109.62) rotate(-54.84)"></rect> <rect class="cls-5" x="48.68" y="158.5" width="16.64" height="2" transform="translate(-77.21 56.17) rotate(-32.74)"></rect> <rect class="cls-5" x="69.07" y="133.88" width="2" height="22.23" transform="translate(-90.95 142.37) rotate(-63.27)"></rect> <rect class="cls-5" x="79.69" y="146.5" width="20.62" height="2" transform="translate(-33.05 26.19) rotate(-14.02)"></rect> <rect class="cls-5" x="81.5" y="149.62" width="2" height="16.76" transform="matrix(0.95, -0.3, 0.3, 0.95, -43.37, 31.8)"></rect> <rect class="cls-5" x="63.62" y="151.5" width="16.76" height="2" transform="translate(-42.16 28.37) rotate(-17.33)"></rect> <circle class="cls-7" cx="50" cy="164" r="4"></circle> <circle class="cls-7" cx="64" cy="155" r="4"></circle> <circle class="cls-7" cx="80" cy="150" r="4"></circle> <circle class="cls-7" cx="85" cy="166" r="4"></circle> <circle class="cls-7" cx="44" cy="130" r="4"></circle> <circle class="cls-7" cx="60.14" cy="140" r="4"></circle> <circle class="cls-7" cx="70" cy="126" r="4"></circle> <circle class="cls-7" cx="100" cy="145" r="4"></circle> </svg> 