<?xml version="1.0" encoding="UTF-8"?> <svg xmlns="http://www.w3.org/2000/svg" id="Layer_1" data-name="Layer 1" viewBox="0 0 200 200"> <defs> <style>.cls-1{fill:#e3e6ec;}.cls-2{fill:#f04e23;}.cls-3{fill:#a8abb5;}.cls-4{fill:#232939;}.cls-5{fill:#00523b;}.cls-6{fill:#008963;}</style> </defs> <title>baza</title> <polygon class="cls-1" points="22 29 20 29 20 18 31 18 31 20 22 20 22 29"></polygon> <polygon class="cls-1" points="31 180 20 180 20 169 22 169 22 178 31 178 31 180"></polygon> <polygon class="cls-1" points="182 180 171 180 171 178 180 178 180 169 182 169 182 180"></polygon> <polygon class="cls-1" points="182 29 180 29 180 20 171 20 171 18 182 18 182 29"></polygon> <rect class="cls-1" x="141" y="34.5" width="20" height="20"></rect> <rect class="cls-2" x="135.5" y="29" width="20" height="20"></rect> <circle class="cls-1" cx="64.75" cy="57.75" r="18.75"></circle> <polygon class="cls-1" points="51 109 101 109 101 79 51 109"></polygon> <polygon class="cls-3" points="161 79 101 79 101 109 111 109 161 79"></polygon> <polygon class="cls-4" points="112 110 110 110 110 71 62 71 62 110 60 110 60 69 112 69 112 110"></polygon> <polygon class="cls-4" points="122 107 120 107 120 64 72 64 72 69 70 69 70 62 122 62 122 107"></polygon> <polygon class="cls-4" points="132 101 130 101 130 58 82 58 82 63 80 63 80 56 132 56 132 101"></polygon> <polygon class="cls-4" points="142 95 140 95 140 52 92 52 92 57 90 57 90 50 142 50 142 95"></polygon> <polygon class="cls-4" points="152 89 150 89 150 46 102 46 102 51 100 51 100 44 152 44 152 89"></polygon> <polygon class="cls-5" points="111 109 161 79 161 139 111 169 111 109"></polygon> <rect class="cls-6" x="51" y="109" width="60" height="60"></rect> <path class="cls-1" d="M93.5,121.5A2.5,2.5,0,0,1,91,124H71a2.5,2.5,0,0,1-2.5-2.5h0A2.5,2.5,0,0,1,71,119H91a2.5,2.5,0,0,1,2.5,2.5Z"></path> <rect class="cls-4" x="41" y="138" width="30.67" height="2"></rect> <rect class="cls-4" x="41" y="143" width="30.67" height="2"></rect> <rect class="cls-4" x="41" y="148" width="30.67" height="2"></rect> <rect class="cls-4" x="71" y="78" width="30" height="2"></rect> <rect class="cls-4" x="71" y="83" width="30" height="2"></rect> <rect class="cls-4" x="71" y="88" width="30" height="2"></rect> <rect class="cls-4" x="71" y="93" width="30" height="2"></rect> <rect class="cls-4" x="71" y="98" width="30" height="2"></rect> <rect class="cls-4" x="71" y="103" width="15" height="2"></rect> <path class="cls-4" d="M64.75,62.41,52.34,50h6.41V28h12V50h6.41ZM57.16,52l7.59,7.59L72.34,52H68.75V30h-8V52Z"></path> <path class="cls-4" d="M142.31,161.3a11,11,0,1,1,11-11A11,11,0,0,1,142.31,161.3Zm0-20a9,9,0,1,0,9,9A9,9,0,0,0,142.31,141.3Z"></path> <rect class="cls-4" x="154.19" y="154.97" width="2" height="16.44" transform="translate(-69.94 157.54) rotate(-45)"></rect> </svg> 