<?xml version="1.0" encoding="UTF-8"?> <svg xmlns="http://www.w3.org/2000/svg" id="Layer_1" data-name="Layer 1" viewBox="0 0 200 200"> <defs> <style>.cls-1{fill:#e3e6ec;}.cls-2{fill:#008963;}.cls-3{fill:#f04e23;}.cls-4{fill:#a8abb5;}.cls-5{fill:#232939;}</style> </defs> <title>dostarczalnosc</title> <polygon class="cls-1" points="21 30 19 30 19 19 30 19 30 21 21 21 21 30"></polygon> <polygon class="cls-1" points="30 181 19 181 19 170 21 170 21 179 30 179 30 181"></polygon> <polygon class="cls-1" points="181 181 170 181 170 179 179 179 179 170 181 170 181 181"></polygon> <polygon class="cls-1" points="181 30 179 30 179 21 170 21 170 19 181 19 181 30"></polygon> <circle class="cls-1" cx="100" cy="90" r="60"></circle> <path class="cls-2" d="M141.89,54.38a55,55,0,1,0-80.78,74.51l10.61-10.61a40,40,0,1,1,65.23-13l14.15,5a54.94,54.94,0,0,0-9.21-55.95Z"></path> <path class="cls-3" d="M136.86,105.57a40.22,40.22,0,0,1-8.58,12.71l10.61,10.61a54.9,54.9,0,0,0,12.21-18.56l-14.15-5Z"></path> <rect class="cls-4" x="40" y="165" width="20" height="5"></rect> <rect class="cls-4" x="65" y="160" width="20" height="10"></rect> <rect class="cls-4" x="90" y="155" width="20" height="15"></rect> <rect class="cls-4" x="115" y="150" width="20" height="20"></rect> <rect class="cls-4" x="140" y="140" width="20" height="30"></rect> <path class="cls-5" d="M61,171H49V159H61Zm-10-2h8v-8H51Z"></path> <path class="cls-5" d="M86,171H74V154H86Zm-10-2h8V156H76Z"></path> <path class="cls-5" d="M111,171H99V148.78h12Zm-10-2h8V150.78h-8Z"></path> <path class="cls-5" d="M136,171H124V144h12Zm-10-2h8V146h-8Z"></path> <path class="cls-5" d="M161,171H149V134h12Zm-10-2h8V136h-8Z"></path> <rect class="cls-5" x="40" y="149" width="9.92" height="2"></rect> <rect class="cls-5" x="40" y="144" width="9.92" height="2"></rect> <rect class="cls-5" x="40" y="139" width="9.92" height="2"></rect> <rect class="cls-5" x="40" y="134" width="9.92" height="2"></rect> <rect class="cls-5" x="40" y="129" width="9.92" height="2"></rect> <rect class="cls-5" x="40" y="124" width="9.92" height="2"></rect> <rect class="cls-5" x="150.04" y="54" width="9.92" height="2"></rect> <rect class="cls-5" x="150.04" y="49" width="9.92" height="2"></rect> <rect class="cls-5" x="150.04" y="44" width="9.92" height="2"></rect> <rect class="cls-5" x="150.04" y="39" width="9.92" height="2"></rect> <rect class="cls-5" x="150.04" y="34" width="9.92" height="2"></rect> <rect class="cls-5" x="150.04" y="29" width="9.92" height="2"></rect> <path class="cls-5" d="M52.5,61l-.77,0,.11-2a11.94,11.94,0,0,0,2.67-.15l.35,2A13.36,13.36,0,0,1,52.5,61Zm-6.74-1.8a13.43,13.43,0,0,1-2.51-1.87l1.37-1.45a11.88,11.88,0,0,0,2.14,1.59Zm14.81-.88-1.2-1.6a11.22,11.22,0,0,0,1.94-1.83l1.54,1.28A13.64,13.64,0,0,1,60.57,58.32ZM39.82,52.14a13.84,13.84,0,0,1-.73-3l2-.23a10.88,10.88,0,0,0,.62,2.59Zm25.82-1.53-2-.46A11.17,11.17,0,0,0,64,47.5l2,0v0A13.49,13.49,0,0,1,65.64,50.61Zm-24-7-1.88-.68a13.83,13.83,0,0,1,1.4-2.8l1.68,1.09A11.38,11.38,0,0,0,41.68,43.59ZM62.76,42.3a11.71,11.71,0,0,0-1.47-2.22l1.52-1.29a13.29,13.29,0,0,1,1.73,2.61Zm-16-4.75-1-1.73a14.1,14.1,0,0,1,2.87-1.25l.58,1.92A11.79,11.79,0,0,0,46.72,37.55ZM57,36.92a11.4,11.4,0,0,0-2.56-.75l.34-2a13.16,13.16,0,0,1,3,.88Z"></path> <circle class="cls-3" cx="62.5" cy="147.5" r="2.5"></circle> <circle class="cls-4" cx="140" cy="32.5" r="2.5"></circle> <path class="cls-5" d="M100,131a3.5,3.5,0,1,1,3.5-3.5A3.5,3.5,0,0,1,100,131Zm0-5a1.5,1.5,0,1,0,1.5,1.5A1.5,1.5,0,0,0,100,126Z"></path> <path class="cls-5" d="M90,131a3.5,3.5,0,1,1,3.5-3.5A3.5,3.5,0,0,1,90,131Zm0-5a1.5,1.5,0,1,0,1.5,1.5A1.5,1.5,0,0,0,90,126Z"></path> <path class="cls-5" d="M110,131a3.5,3.5,0,1,1,3.5-3.5A3.5,3.5,0,0,1,110,131Zm0-5a1.5,1.5,0,1,0,1.5,1.5A1.5,1.5,0,0,0,110,126Z"></path> <path class="cls-5" d="M120,131a3.5,3.5,0,1,1,3.5-3.5A3.5,3.5,0,0,1,120,131Zm0-5a1.5,1.5,0,1,0,1.5,1.5A1.5,1.5,0,0,0,120,126Z"></path> <path class="cls-5" d="M80,131a3.5,3.5,0,1,1,3.5-3.5A3.5,3.5,0,0,1,80,131Zm0-5a1.5,1.5,0,1,0,1.5,1.5A1.5,1.5,0,0,0,80,126Z"></path> <path class="cls-5" d="M92.19,93.47l4.45-11.33,55,27.07-.73,1.86Zm5.52-8.57-2.86,7.28L140,105.71Z"></path> </svg> 