<svg id="Layer_1" data-name="Layer 1" xmlns="http://www.w3.org/2000/svg" viewBox="0 0 200 200"><defs><style>.cls-1{fill:#e3e6ec}.cls-2{fill:#f04e23}.cls-3{fill:#00523b}.cls-4{fill:#232939}.cls-5{fill:#7d8291}.cls-6{fill:#a8abb5}</style></defs><title>onas_3</title><path class="cls-1" d="M21 30h-2V19h11v2h-9v9zm9 151H19v-11h2v9h9v2zm151 0h-11v-2h9v-9h2v11zm0-151h-2v-9h-9v-2h11v11z"/><path class="cls-2" d="M70 135c0-5 5-5 5-5s5 0 5-5-5-5-5-5-5 0-5-5 5-5 5-5h5s5 0 5-5-5-5-5-5H55a4.54 4.54 0 0 0-4.84 3.76 30.27 30.27 0 0 0 1 6.57c.39 1.3.5 2.69.81 4a17.4 17.4 0 0 0 1.58 3.7c.34.73.59 1.5 1 2.22s.45 1.43.79 2.2A37.29 37.29 0 0 0 59 128.6a49.22 49.22 0 0 0 4.36 5.4c.41.45 4.79 5 5.07 4.76A4.66 4.66 0 0 0 70 135z"/><path class="cls-1" d="M147.71 85H115s-5 .08-5 5 5 5 5 5h10s5 .17 5 5-5 5-5 5h-20s-5 .17-5 5 5 5 5 5h10s5 .08 5 5 5 5 5 5h5s5 0 5 5v5.71s21.59-18.96 12.71-50.71z"/><path class="cls-3" d="M100 50s-5 0-5 5 5 5 5 5h10s5 0 5 5-5 5-5 5H90s-5 0-5 5 5 5 5 5 5 0 5 5-5 5-5 5H70s-5 0-5-5 5-5 5-5 5-.75 5-5.37S70 70 70 70H60a50.11 50.11 0 0 1 40-20z"/><path class="cls-4" d="M100 151a51 51 0 1 1 51-51 51.06 51.06 0 0 1-51 51zm0-100a49 49 0 1 0 49 49 49.05 49.05 0 0 0-49-49z"/><path class="cls-4" d="M45.3 127a61.07 61.07 0 0 1 4.48-61.66l1.64 1.13a59.1 59.1 0 0 0-4.33 59.64zm86.45-69.85l-1.07-1.68 1.28-.81 1 1.71zm-74.9 93.65l-.57-1.92a27 27 0 0 0 2.66-1l.77 1.85a27.54 27.54 0 0 1-2.86 1.07zm-6.56-.18a5 5 0 0 1-.5-.42 4.39 4.39 0 0 1-1.19-2.87l2-.15a2.47 2.47 0 0 0 .61 1.61l.22.19zm14.79-3.54l-1-1.74c.81-.46 1.65-1 2.51-1.47l1 1.71c-.83.53-1.68 1.04-2.51 1.5zm7.55-4.73l-1.12-1.65 2.4-1.67 1.15 1.63c-.82.59-1.63 1.15-2.43 1.69zm-20.88-.45l-1.87-.72c.34-.87.75-1.8 1.21-2.77l1.8.87c-.44.92-.83 1.8-1.14 2.62zm28.08-4.75l-1.21-1.59 2.32-1.79 1.23 1.58q-1.17.93-2.34 1.8zm7-5.5l-1.27-1.55c.75-.61 1.5-1.23 2.26-1.87l1.28 1.53zm6.76-5.73l-1.32-1.51 2.2-1.94 1.28 1.53zm6.58-5.93l-1.36-1.47c.71-.66 1.43-1.32 2.14-2l1.37 1.46zm6.42-6.09l-1.39-1.43 2.09-2.06 1.41 1.43zm6.27-6.24l-1.43-1.41c.69-.7 1.38-1.4 2.05-2.1l1.44 1.39zm6.12-6.4l-1.46-1.37c.67-.72 1.34-1.43 2-2.15l1.48 1.35zm6-6.55l-1.5-1.33c.65-.74 1.3-1.47 1.93-2.21l1.51 1.31zm5.68-6.71l-1.54-1.27 1.88-2.29 1.55 1.26c-.63.76-1.26 1.52-1.89 2.3zm5.54-6.91l-1.58-1.22c.61-.79 1.2-1.57 1.77-2.33l1.6 1.2c-.58.75-1.17 1.54-1.79 2.33zm5.27-7.15l-1.65-1.14c.57-.82 1.12-1.63 1.65-2.42l1.66 1.11c-.53.78-1.13 1.6-1.66 2.43zm4.83-7.48l-1.73-1c.52-.87 1-1.72 1.43-2.53l1.76.94c-.45.81-.94 1.68-1.46 2.57zm4-8.06l-1.88-.69a19.92 19.92 0 0 0 .8-2.68l1.95.41a21 21 0 0 1-.88 2.94zm-12.24-4.9l-.91-1.78c.94-.48 1.85-.92 2.71-1.29l.8 1.83c-.82.36-1.66.74-2.6 1.24zm10.25-2.63a4.36 4.36 0 0 0-2.33-.24l-.22-2a6.15 6.15 0 0 1 3.43.44zm-92.65 83.31l-1.72-1 .79-1.29 1.7 1zM36.27 94.1l-2-.18a65.86 65.86 0 0 1 11.6-31.7l1.64 1.14A63.89 63.89 0 0 0 36.27 94.1zm114.22 40.12l-1.64-1.14a59.1 59.1 0 0 0 4.33-59.64l1.79-.88a61.07 61.07 0 0 1-4.48 61.66zm3.9 3.15l-1.64-1.15A63.69 63.69 0 0 0 164 105.48l2 .18a65.91 65.91 0 0 1-11.61 31.71z"/><path class="cls-5" d="M85 160h-5a5.13 5.13 0 0 0-5.13-5.06h-9.74A5.14 5.14 0 0 0 60 160h-5a5 5 0 0 0 0 10h30a5 5 0 0 0 0-10z"/><circle class="cls-3" cx="102.5" cy="32.5" r="2.5"/><circle class="cls-6" cx="125" cy="40" r="5"/></svg>