<svg id="Layer_1" data-name="Layer 1" xmlns="http://www.w3.org/2000/svg" viewBox="0 0 200 200"><defs><style>.cls-1{fill:#e3e6ec}.cls-2{fill:#232939}.cls-3{fill:#f04e23}.cls-4{fill:#fff}.cls-5{fill:#00523b}.cls-6{fill:#7d8291}.cls-7{fill:#f6f8fa}.cls-8{fill:#008963}</style></defs><title>onas_1</title><path class="cls-1" d="M21 30h-2V19h11v2h-9v9zm9 151H19v-11h2v9h9v2zm151 0h-11v-2h9v-9h2v11zm0-151h-2v-9h-9v-2h11v11zM80 80.5c0-10-10-10-10-10H50s-10 0-10-10 10-10 10-10h40c20 0 20 20 20 20v75s0 5-5 5H80z"/><path class="cls-2" d="M54.56 121.55h-1.65l-.78-.08-3.05-20.31-5.34-3.2L49 85.3V70.5h2v15.2l-4.74 11.39 4.66 2.8 2.95 19.65c3.55.09 18.35-.29 27.32-12.63l1.62 1.18c-8.99 12.36-23.41 13.46-28.25 13.46z"/><path class="cls-2" d="M52 168.8l-1.68-1.1 18.6-28.51-4.89-19.57 1.94-.49 5.11 20.43L52 168.8zm17.15-85.1A5.29 5.29 0 0 0 65 81.5h-9.21v-2H65a7.31 7.31 0 0 1 5.85 3.14zm-6.98 7.96a13 13 0 0 1-2.35-.18l-.82-.15V86.5h2v3.11a14.1 14.1 0 0 0 6.6-1l.8 1.84a15.68 15.68 0 0 1-6.23 1.21zm-10.52 17.58h-.57l.16-2a13.88 13.88 0 0 0 6.56-1.5l.9 1.79a16.28 16.28 0 0 1-7.05 1.71z"/><path class="cls-3" d="M90 140.5s-10 0-10 10v10s0 5-5 5H60s-5 0-5-5l-8.88 10H100v-20z"/><path class="cls-4" d="M99.67 68.5H113v25.67H99.67z"/><path class="cls-5" d="M110 120.5l-25 30v20h60l-3.67-37.33L110 120.5z"/><path class="cls-6" d="M120 40.5h30s10 0 10 10-10 10-10 10h-20s-10 0-10 10v20h-5v-15s0-5-5-5-10 0-10 10 10 10 10 10v10s-20 .58-20-20v-20s0-20 20-20z"/><path class="cls-2" d="M144.82 114.57c-5.88 0-21.71-1.21-30.63-13.48l1.62-1.18c9 12.46 26.37 12.73 30.31 12.63l3-23h4.49L149 75.66V60.5h2v14.84l5.39 16.16h-5.51l-3 22.93-.81.07c-.15.01-.96.07-2.25.07zM109 90.5h2v25.86h-2z"/><path class="cls-2" d="M139 114h2v16.5h-2z"/><path class="cls-7" d="M142.42 129.5l-33.83-15-6.59 12.1 40.42 19.9v-17z"/><path class="cls-8" d="M142.42 134l3.58 6.5-.5 10h-2.46l-.62-4V134zm.62 16.5v20H150l-4.5-20h-2.46z"/><path class="cls-2" d="M147.32 101.31a9.54 9.54 0 0 1-6.5-2.35l1.36-1.47a8.11 8.11 0 0 0 6.17 1.75l.32 2a8.89 8.89 0 0 1-1.35.07zM130.85 73.7l-1.7-1.06A7.31 7.31 0 0 1 135 69.5h9.21v2H135a5.35 5.35 0 0 0-4.15 2.2zm6.98 7.96a15.68 15.68 0 0 1-6.23-1.24l.8-1.84a14.23 14.23 0 0 0 6.6 1V76.5h2v4.83l-.82.15a13 13 0 0 1-2.35.18z"/></svg>