<svg id="Layer_1" data-name="Layer 1" xmlns="http://www.w3.org/2000/svg" viewBox="0 0 200 200"><defs><style>.cls-1{fill:#e3e6ec}.cls-2{fill:#008963}.cls-3{fill:#a8abb5}.cls-4{fill:#232939}</style></defs><title>onas_9</title><path class="cls-1" d="M21 30h-2V19h11v2h-9v9zm9 151H19v-11h2v9h9v2zm151 0h-11v-2h9v-9h2v11zm0-151h-2v-9h-9v-2h11v11zM40.06 140.24l17.47-10.09L75 140.24v20.17L57.53 170.5l-17.47-10.09v-20.17zm42.47 0L100 130.15l17.47 10.09v20.17L100 170.5l-17.47-10.09v-20.17z"/><path class="cls-2" d="M76.11 61.29L100 47.5l23.89 13.79v27.59L100 102.68l-23.89-13.8V61.29z"/><path class="cls-3" d="M61.29 105.91l17.48-10.09 17.47 10.09v20.18l-17.47 10.09-17.48-10.09v-20.18zm42.47 0l17.48-10.09 17.47 10.09v20.18l-17.47 10.09-17.48-10.09v-20.18z"/><path class="cls-1" d="M125.06 140.24l17.47-10.09L160 140.24v20.17l-17.47 10.09-17.47-10.09v-20.17z"/><path class="cls-4" d="M100 55.32a12.91 12.91 0 1 1 12.91-12.91A12.92 12.92 0 0 1 100 55.32zm0-23.82a10.91 10.91 0 1 0 10.91 10.91A10.92 10.92 0 0 0 100 31.5zm25.95 49.29l-4.12-13.74L100 61.3l-21.83 5.75-4.12 13.74-1.92-.58 4.45-14.81L100 59.23l23.42 6.17 4.45 14.81-1.92.58zM67.31 102.8a9.5 9.5 0 1 1 9.5-9.5 9.52 9.52 0 0 1-9.5 9.5zm0-17a7.5 7.5 0 1 0 7.5 7.5 7.51 7.51 0 0 0-7.5-7.5zm18.25 34.99l-2.89-9.66-15.36-4.04-15.36 4.04-2.9 9.66-1.92-.58 3.22-10.73 16.96-4.46 16.95 4.46 3.22 10.73-1.92.58z"/><path class="cls-4" d="M54.94 133.72a7.61 7.61 0 1 1 7.61-7.61 7.61 7.61 0 0 1-7.61 7.61zm0-13.22a5.61 5.61 0 1 0 5.61 5.61 5.62 5.62 0 0 0-5.61-5.61zm13.98 27.05l-2.22-7.39-11.76-3.1-11.77 3.1-2.21 7.39-1.92-.58 2.54-8.46L54.94 135l13.36 3.51 2.54 8.46-1.92.58zm16.16-13.83a7.61 7.61 0 1 1 7.61-7.61 7.61 7.61 0 0 1-7.61 7.61zm0-13.22a5.61 5.61 0 1 0 5.61 5.61 5.62 5.62 0 0 0-5.61-5.61z"/><path class="cls-4" d="M99.06 147.55l-2.21-7.39-11.77-3.1-11.76 3.1-2.22 7.39-1.92-.58 2.54-8.46L85.08 135l13.36 3.51 2.54 8.46-1.92.58zm16.12-13.83a7.61 7.61 0 1 1 7.61-7.61 7.61 7.61 0 0 1-7.61 7.61zm0-13.22a5.61 5.61 0 1 0 5.61 5.61 5.61 5.61 0 0 0-5.61-5.61z"/><path class="cls-4" d="M129.16 147.55l-2.22-7.39-11.76-3.1-11.77 3.1-2.21 7.39-1.92-.58 2.54-8.46 13.36-3.51 13.36 3.51 2.54 8.46-1.92.58zm15.9-13.83a7.61 7.61 0 1 1 7.61-7.61 7.61 7.61 0 0 1-7.61 7.61zm0-13.22a5.61 5.61 0 1 0 5.61 5.61 5.62 5.62 0 0 0-5.61-5.61z"/><path class="cls-4" d="M131.08 147.55l-1.92-.58 2.54-8.46 13.36-3.51 13.36 3.51 2.54 8.46-1.92.58-2.22-7.39-11.76-3.1-11.77 3.1-2.21 7.39zm.04-44.75a9.5 9.5 0 1 1 9.51-9.5 9.51 9.51 0 0 1-9.51 9.5zm0-17a7.5 7.5 0 1 0 7.51 7.5 7.51 7.51 0 0 0-7.51-7.5zm18.26 34.99l-2.9-9.66-15.36-4.04-15.36 4.04-2.89 9.66-1.92-.58 3.22-10.73 16.95-4.46 16.95 4.46 3.22 10.73-1.91.58zM100 92a9.51 9.51 0 1 1 9.5-9.51A9.52 9.52 0 0 1 100 92zm0-17a7.51 7.51 0 1 0 7.5 7.5 7.51 7.51 0 0 0-7.5-7.56z"/><path class="cls-4" d="M118.26 109.93l-2.9-9.66L100 96.23l-15.36 4.04-2.9 9.66-1.91-.57 3.22-10.74L100 94.16l16.95 4.46 3.22 10.74-1.91.57zm27.8 51.57H53.94v-11h2v9h88.12v-9h2v11z"/><path class="cls-4" d="M84 150.32h2v10.18h-2zm30.18 0h2v10.18h-2zm-59.24 1.18a3.38 3.38 0 1 1 3.37-3.37 3.38 3.38 0 0 1-3.37 3.37zm0-4.75a1.38 1.38 0 1 0 1.37 1.38 1.38 1.38 0 0 0-1.37-1.38z"/><path class="cls-4" d="M85 151.5a3.38 3.38 0 1 1 3.38-3.37A3.37 3.37 0 0 1 85 151.5zm0-4.75a1.38 1.38 0 1 0 1.38 1.38 1.37 1.37 0 0 0-1.38-1.38zm30.18 4.75a3.38 3.38 0 1 1 3.37-3.37 3.38 3.38 0 0 1-3.37 3.37zm0-4.75a1.38 1.38 0 1 0 1.37 1.38 1.38 1.38 0 0 0-1.37-1.38zM145 151.5a3.38 3.38 0 1 1 3.38-3.37 3.37 3.37 0 0 1-3.38 3.37zm0-4.75a1.38 1.38 0 1 0 1.38 1.38 1.37 1.37 0 0 0-1.38-1.38z"/></svg>