<svg id="Layer_1" data-name="Layer 1" xmlns="http://www.w3.org/2000/svg" viewBox="0 0 200 200"><defs><style>.cls-1{fill:#e3e6ec}.cls-2{fill:#232939}.cls-3{fill:#a8abb5}.cls-4{fill:#fff}.cls-5{fill:#7d8291}.cls-6{fill:#1fcce8}.cls-7{fill:#008963}.cls-8{fill:#f04e23}.cls-9{fill:#00523b}</style></defs><title>onas_10</title><path class="cls-1" d="M21 30h-2V19h11v2h-9v9zm9 151H19v-11h2v9h9v2zm151 0h-11v-2h9v-9h2v11zm0-151h-2v-9h-9v-2h11v11z"/><path class="cls-2" d="M151.56 50h-2V34h5v-3h-8.25v18.25h-2V29h12.25v7h-5v14z"/><path class="cls-3" d="M77.56 160l5.25-10h69.75l5 10h-80z"/><path class="cls-2" d="M162.15 171h-122v-12h122zm-120-2h118v-8h-118z"/><path class="cls-1" d="M82.81 50h69.75v100H82.81z"/><path class="cls-3" d="M82.81 50s0-10 9.75-10h50s10 0 10 10z"/><path class="cls-1" d="M82.81 50H67.56l15.25 39.89V50z"/><path class="cls-2" d="M74.86 45.71a6.3 6.3 0 0 1 0-8.91 4.3 4.3 0 0 0 0-6.07l1.41-1.41a6.29 6.29 0 0 1 0 8.9 4.3 4.3 0 0 0 0 6.07zm77.7 75.29v-2a8.73 8.73 0 0 0 6.5-2.35 10.16 10.16 0 0 0 2.5-6.63V70c0-8.9-8.63-9-9-9v-2c.11 0 11 .13 11 11v40a12 12 0 0 1-3.06 8 10.62 10.62 0 0 1-7.94 3z"/><path class="cls-4" d="M137.38 64.81a4.82 4.82 0 0 0-9.63 0V100h9.63z"/><path class="cls-5" d="M127.75 100v35.19a4.82 4.82 0 0 0 9.63 0V100z"/><path class="cls-2" d="M132.56 68.95h4.81v2h-4.81zm0 5.05h4.81v2h-4.81zm0 5h4.81v2h-4.81zm0 5.05h4.81v2h-4.81zm0 4.95h4.81v2h-4.81zm0 5.05h4.81v2h-4.81zm0 5h4.81v2h-4.81zm0 5.06h4.81v2h-4.81zm0 4.89h4.81v2h-4.81zm0 5.05h4.81v2h-4.81zm0 5h4.81v2h-4.81zm0 5.06h4.81v2h-4.81zm0 4.89h4.81v2h-4.81z"/><circle class="cls-6" cx="60.06" cy="70" r="2.5"/><circle class="cls-1" cx="50.56" cy="68.28" r="14.12"/><circle class="cls-7" cx="62.56" cy="43.97" r="4.81"/><circle class="cls-8" cx="48.06" cy="99.16" r="2.5"/><path class="cls-7" d="M45.56 139.16a20 20 0 0 0 20 20h10a20 20 0 0 0 20-20z"/><path class="cls-9" d="M45.56 134.16h50v5h-50z"/><path class="cls-7" d="M45.56 124.16h50v10h-50z"/><path class="cls-2" d="M100.18 150.16v-2c3.56 0 4-3.66 4-4.08v-9.92c0-3.83-3.87-4-4-4h-4.62v-2h4.62c2.1.07 6 1.41 6 6v10c-.18 2.12-1.61 6-6 6zm-40.33-30.3a11 11 0 0 1 0-15.55 9 9 0 0 0 0-12.73l1.42-1.41a11 11 0 0 1 0 15.55 9 9 0 0 0 0 12.73zm11.42-10l-1.42-1.41a9 9 0 0 0 0-12.73 11 11 0 0 1 0-15.55 9 9 0 0 0 0-12.73L71.27 66a11 11 0 0 1 0 15.56 9 9 0 0 0 0 12.73 11 11 0 0 1 0 15.57z"/></svg>