<svg id="Layer_1" data-name="Layer 1" xmlns="http://www.w3.org/2000/svg" viewBox="0 0 200 200"><defs><style>.cls-1{fill:#e3e6ec}.cls-2{fill:#a8abb5}.cls-3{fill:#fff}.cls-4{fill:#232939}.cls-5{fill:#f04e23}.cls-6{fill:#008963}</style></defs><title>onas_4</title><path class="cls-1" d="M21 30h-2V19h11v2h-9v9zm9 151H19v-11h2v9h9v2zm151 0h-11v-2h9v-9h2v11zm0-151h-2v-9h-9v-2h11v11z"/><circle class="cls-1" cx="125" cy="157.5" r="12.5"/><path class="cls-1" d="M50.36 126a3.53 3.53 0 1 1 3.53 3.53 3.53 3.53 0 0 1-3.53-3.53z"/><path class="cls-2" d="M112.28 52.42A22.28 22.28 0 1 1 90 30.14a22.27 22.27 0 0 1 22.28 22.28z"/><path class="cls-3" d="M90 44.42a23.3 23.3 0 0 1-16.53-6.84l1.41-1.41a21.42 21.42 0 0 0 30.24 0l1.41 1.41A23.3 23.3 0 0 1 90 44.42zm15.12 24.29a21.4 21.4 0 0 0-30.24 0l-1.41-1.42a23.41 23.41 0 0 1 33.06 0z"/><path class="cls-3" d="M90.66 75.74l-1.32-1.5c7.23-6.32 11.06-13.79 11.08-21.62S96.5 37.06 89.34 30.75l1.32-1.5c7.6 6.69 11.78 15 11.76 23.38S98.34 69 90.66 75.74z"/><path class="cls-3" d="M89.06 75.75c-7.6-6.69-11.78-15-11.76-23.37S81.38 36 89.06 29.26l1.31 1.5c-7.23 6.32-11.06 13.79-11.07 21.62s3.92 15.56 11.08 21.87z"/><path class="cls-3" d="M67.49 51.42h45.01v2H67.49z"/><path class="cls-3" d="M89 30.14h2v44.85h-2z"/><path class="cls-3" d="M61.83 103.38l6.84 2.83L105 135.54a4.62 4.62 0 0 0 6.5-6.5 4.62 4.62 0 0 0 6.5-.6 4.36 4.36 0 0 0 .07-5.82 4.61 4.61 0 0 0 6.41-.66 4.67 4.67 0 0 0-.54-6.52 3.9 3.9 0 0 0 .57.58 4.62 4.62 0 0 0 5.9-7.1l-.19-.14-17.48-18L102 83.13l.87-14.13-3.15-1.46-31.89 5.34z"/><path class="cls-4" d="M108 137.59a5.66 5.66 0 0 1-2.81-.75l-.73-.57-36.31-29.19-6.7-2.78.77-1.85 7.07 3 35.62 28.76.73.58a3.61 3.61 0 0 0 5.09-5.09l1.41-1.41a3.62 3.62 0 0 0 5.09-.47 3.35 3.35 0 0 0 .14-4.46l1.32-1.5a3.6 3.6 0 0 0 5-.52 3.67 3.67 0 0 0 .09-4.59 5.45 5.45 0 0 1-.62-.64l1.41-1.41a6.24 6.24 0 0 1 .63.63 3.62 3.62 0 0 0 4.56-5.62l-.17-.11-.11-.1-17.41-18L101 83.62l.86-14-2.25-1L68 73.86l-.33-2 32.19-5.36 4 1.88-.86 14.25 10.44 7.42 17.4 18 .19.14a5.62 5.62 0 0 1-4.57 9.85 5.7 5.7 0 0 1-1.23 4.6 5.57 5.57 0 0 1-5.17 2 5.82 5.82 0 0 1-1.32 4.52 5.61 5.61 0 0 1-5.28 1.94 5.6 5.6 0 0 1-5.54 6.58z"/><path class="cls-3" d="M132.12 73.63L102.87 69 79.12 82.88a4.54 4.54 0 1 0 4.49 7.89h.08L102 83.13l10.75 7.62 17.5 18 8.37-6.12z"/><path class="cls-4" d="M130.14 110.07l-18-18.56-10.23-7.25-17.8 7.39a5.55 5.55 0 0 1-6.27-9.1v-.06l.81-.48L102.68 68h.32l29.25 4.63-.31 2L103.07 70 80.44 83.27l-.82.48a3.54 3.54 0 0 0 .81 6.49 3.49 3.49 0 0 0 2.65-.31l.23-.13 18.82-7.8 11.34 8.06 16.89 17.38 7.67-5.61 1.18 1.61z"/><path class="cls-3" d="M101.85 130.05a4.62 4.62 0 1 0-7.1-5.91L91.07 129a4.62 4.62 0 0 0 7.1 5.91z"/><path class="cls-4" d="M94.62 137.59a5.61 5.61 0 0 1-4.32-9.21l3.7-4.84a5.62 5.62 0 1 1 8.67 7.15L99 135.53a5.64 5.64 0 0 1-4.38 2.06zm3.68-14.12a3.6 3.6 0 0 0-2.78 1.31l-3.65 4.84a3.61 3.61 0 0 0-.87 2.68 3.54 3.54 0 0 0 1.29 2.46 3.65 3.65 0 0 0 2.31.83 3.6 3.6 0 0 0 2.78-1.3l3.65-4.84a3.67 3.67 0 0 0 .86-2.69 3.63 3.63 0 0 0-3.61-3.29z"/><path class="cls-3" d="M97.38 121.11a4.62 4.62 0 1 0-7.1-5.9l-7 8.62a4.62 4.62 0 1 0 7.1 5.91z"/><path class="cls-4" d="M86.87 132.41a5.62 5.62 0 0 1-4.32-9.22l7-8.61a5.62 5.62 0 0 1 9.93 3.07 5.56 5.56 0 0 1-1.28 4.1l-7 8.62a5.62 5.62 0 0 1-4.33 2.04zm7-17.87a3.6 3.6 0 0 0-2.78 1.3l-7 8.62a3.58 3.58 0 0 0-.83 2.66 3.54 3.54 0 0 0 1.29 2.45 3.61 3.61 0 0 0 2.31.84 3.6 3.6 0 0 0 2.78-1.31l7-8.61a3.62 3.62 0 0 0-2.78-5.95z"/><path class="cls-3" d="M90.7 114.43a4.62 4.62 0 0 0-7.11-5.91l-7 8.62a4.62 4.62 0 1 0 7.1 5.91z"/><path class="cls-4" d="M80.18 125.72a5.63 5.63 0 0 1-4.32-9.22l7-8.61a5.62 5.62 0 0 1 8.66 7.18l-7 8.61a5.6 5.6 0 0 1-4.34 2.04zm7-17.87a3.63 3.63 0 0 0-2.79 1.31l-7 8.61a3.62 3.62 0 0 0 2.77 6 3.63 3.63 0 0 0 2.84-1.36l7-8.61a3.62 3.62 0 0 0-2.77-6z"/><path class="cls-3" d="M81.18 111.19a4.62 4.62 0 1 0-7.1-5.91l-4.18 5.14a4.62 4.62 0 0 0 7.11 5.9z"/><path class="cls-4" d="M73.45 119a5.62 5.62 0 0 1-5.59-5.11 5.55 5.55 0 0 1 1.27-4.1l4.17-5.13a5.62 5.62 0 1 1 8.7 7.17L77.78 117a5.61 5.61 0 0 1-4.33 2zm4.18-14.38a3.6 3.6 0 0 0-2.78 1.31l-4.17 5.13a3.57 3.57 0 0 0-.83 2.65 3.63 3.63 0 0 0 3.6 3.29 3.63 3.63 0 0 0 2.79-1.31l4.17-5.12a3.68 3.68 0 0 0 .83-2.66 3.63 3.63 0 0 0-3.61-3.29z"/><path class="cls-4" transform="rotate(-46.91 118.97 110.773)" d="M117.98 103.97h2v13.62h-2z"/><path class="cls-4" transform="rotate(-46.91 113.091 117.945)" d="M112.11 111.15h2v13.62h-2z"/><path class="cls-4" transform="rotate(-46.91 106.52 124.379)" d="M105.54 117.57h2v13.62h-2z"/><path class="cls-1" d="M70.37 67.86l-10.03-2.3-9.94 42.72 10.16 2.33 9.81-42.75z"/><path class="cls-5" d="M61.35 61.23L40 55v54.13l9.53 2.85.87-3.7 9.94-42.72 1.01-4.33z"/><path class="cls-1" d="M129.62 67.86l10.03-2.3 9.94 42.72-10.16 2.33-9.81-42.75z"/><path class="cls-6" d="M138.64 61.23L159.99 55v54.13l-9.54 2.85-.86-3.7-9.94-42.72-1.01-4.33z"/><path class="cls-2" d="M83.88 155.93l-2.74-.27a11.82 11.82 0 0 1-5.92-2.7l-2.53-.07h-26.8a6.95 6.95 0 0 1 0-13.89H76.8a6.93 6.93 0 0 1 3.72 12.78A6.33 6.33 0 0 0 82 154zM45.89 141a4.95 4.95 0 0 0 0 9.89h26.83L76 151l.28.26a9.63 9.63 0 0 0 2.54 1.67 6.9 6.9 0 0 1-.47-1.39l-.18-.78.73-.34a4.94 4.94 0 0 0-2.1-9.42z"/><path class="cls-4" d="M118.86 53.6l1.93-2a6.19 6.19 0 0 0 1.43-2.18 6.93 6.93 0 0 1 3.72-12.78h15.85a6.95 6.95 0 0 1 0 13.89H130l-2.5.07a11.8 11.8 0 0 1-5.93 2.7zm7.08-14.93a4.93 4.93 0 0 0-2.1 9.4l.72.34-.18.78a6.78 6.78 0 0 1-.46 1.38 9.57 9.57 0 0 0 2.54-1.66l.27-.26 3.27-.09h11.79a4.95 4.95 0 0 0 0-9.89z"/><path class="cls-2" d="M161 151h-37v-22h37zm-35-2h33v-18h-33z"/><path class="cls-2" d="M142.5 143.21l-18.06-12.39 1.12-1.64 16.94 11.61 16.94-11.61 1.12 1.64-18.06 12.39z"/><path class="cls-2" transform="rotate(-34.42 132.282 144.997)" d="M123.45 144h17.68v2h-17.68z"/><path class="cls-2" transform="rotate(-55.56 152.71 145.002)" d="M151.71 136.16h2v17.68h-2z"/><path class="cls-4" d="M90 143.5h25v2H90zm0 5.5h25v2H90zm10 5h15v2h-15z"/><path class="cls-2" d="M50.21 46a6.21 6.21 0 1 1 6.21-6.21A6.22 6.22 0 0 1 50.21 46zm0-10.42a4.21 4.21 0 1 0 4.21 4.21 4.22 4.22 0 0 0-4.21-4.21z"/><path class="cls-2" d="M49.21 32h2v2.58h-2zm0 13h2v2.58h-2zm-6.79-6.21H45v2h-2.58zm13 0H58v2h-2.58z"/><path class="cls-2" transform="rotate(-45 54.8 35.2)" d="M53.51 34.2h2.58v2h-2.58z"/><path class="cls-2" transform="rotate(-45 45.607 44.39)" d="M44.32 43.39h2.58v2h-2.58z"/><path class="cls-2" transform="rotate(-45 45.61 35.198)" d="M44.61 33.9h2v2.58h-2z"/><path class="cls-2" transform="rotate(-45 54.798 44.392)" d="M53.8 43.1h2v2.58h-2z"/></svg>