<?xml version="1.0" encoding="UTF-8"?> <svg xmlns="http://www.w3.org/2000/svg" id="Layer_1" data-name="Layer 1" viewBox="0 0 200 200"> <defs> <style>.cls-1{fill:#e3e6ec;}.cls-2{fill:#232939;}.cls-3{fill:#f04e23;}.cls-4{fill:#fff;}.cls-5{fill:#00523b;}.cls-6{fill:#7d8291;}.cls-7{fill:#f6f8fa;}.cls-8{fill:#008963;}</style> </defs> <title>personalizacja</title> <polygon class="cls-1" points="21 30 19 30 19 19 30 19 30 21 21 21 21 30"></polygon> <polygon class="cls-1" points="30 181 19 181 19 170 21 170 21 179 30 179 30 181"></polygon> <polygon class="cls-1" points="181 181 170 181 170 179 179 179 179 170 181 170 181 181"></polygon> <polygon class="cls-1" points="181 30 179 30 179 21 170 21 170 19 181 19 181 30"></polygon> <path class="cls-1" d="M80,80.5c0-10-10-10-10-10H50s-10,0-10-10,10-10,10-10H90c20,0,20,20,20,20v75s0,5-5,5H80Z"></path> <path class="cls-2" d="M54.56,121.55c-1,0-1.62,0-1.65,0l-.78-.08-3.05-20.31-5.34-3.2L49,85.3V70.5h2V85.7L46.26,97.09l4.66,2.8,2.95,19.65c3.55.09,18.35-.29,27.32-12.63l1.62,1.18C73.82,120.45,59.4,121.55,54.56,121.55Z"></path> <polygon class="cls-2" points="52 168.8 50.32 167.7 68.92 139.19 64.03 119.62 65.97 119.13 71.08 139.56 52 168.8"></polygon> <path class="cls-2" d="M69.15,83.7A5.29,5.29,0,0,0,65,81.5H55.79v-2H65a7.31,7.31,0,0,1,5.85,3.14Z"></path> <path class="cls-2" d="M62.17,91.66a13,13,0,0,1-2.35-.18L59,91.33V86.5h2v3.11a14.1,14.1,0,0,0,6.6-1l.8,1.84A15.68,15.68,0,0,1,62.17,91.66Z"></path> <path class="cls-2" d="M51.65,109.24c-.34,0-.54,0-.57,0l.16-2a13.88,13.88,0,0,0,6.56-1.5l.9,1.79A16.28,16.28,0,0,1,51.65,109.24Z"></path> <path class="cls-3" d="M90,140.5s-10,0-10,10v10s0,5-5,5H60s-5,0-5-5l-8.88,10H100v-20Z"></path> <rect class="cls-4" x="99.67" y="68.5" width="13.33" height="25.67"></rect> <polygon class="cls-5" points="110 120.5 85 150.5 85 170.5 145 170.5 141.33 133.17 110 120.5"></polygon> <path class="cls-6" d="M120,40.5h30s10,0,10,10-10,10-10,10H130s-10,0-10,10v20h-5v-15s0-5-5-5-10,0-10,10,10,10,10,10v10s-20,.58-20-20v-20s0-20,20-20Z"></path> <path class="cls-2" d="M144.82,114.57c-5.88,0-21.71-1.21-30.63-13.48l1.62-1.18c9,12.46,26.37,12.73,30.31,12.63l3-23h4.49L149,75.66V60.5h2V75.34l5.39,16.16h-5.51l-3,22.93-.81.07C146.92,114.51,146.11,114.57,144.82,114.57Z"></path> <rect class="cls-2" x="109" y="90.5" width="2" height="25.86"></rect> <rect class="cls-2" x="139" y="114" width="2" height="16.5"></rect> <polygon class="cls-7" points="142.42 129.5 108.59 114.5 102 126.6 142.42 146.5 142.42 129.5"></polygon> <polygon class="cls-8" points="142.42 134 146 140.5 145.5 150.5 143.04 150.5 142.42 146.5 142.42 134"></polygon> <polygon class="cls-8" points="143.04 150.5 143.04 170.5 150 170.5 145.5 150.5 143.04 150.5"></polygon> <path class="cls-2" d="M147.32,101.31a9.54,9.54,0,0,1-6.5-2.35l1.36-1.47a8.11,8.11,0,0,0,6.17,1.75l.32,2A8.89,8.89,0,0,1,147.32,101.31Z"></path> <path class="cls-2" d="M130.85,73.7l-1.7-1.06A7.31,7.31,0,0,1,135,69.5h9.21v2H135A5.35,5.35,0,0,0,130.85,73.7Z"></path> <path class="cls-2" d="M137.83,81.66a15.68,15.68,0,0,1-6.23-1.24l.8-1.84a14.23,14.23,0,0,0,6.6,1V76.5h2v4.83l-.82.15A13,13,0,0,1,137.83,81.66Z"></path> <rect class="cls-2" x="125" y="149.5" width="35" height="2"></rect> <rect class="cls-2" x="125" y="154.5" width="35" height="2"></rect> <rect class="cls-2" x="125" y="159.5" width="35" height="2"></rect> <rect class="cls-2" x="125" y="164.5" width="20" height="2"></rect> <path class="cls-2" d="M95.07,61.5A16,16,0,1,1,111,45.5,16,16,0,0,1,95.07,61.5Zm0-30A14,14,0,1,0,109,45.5,14,14,0,0,0,95.07,31.5Z"></path> <path class="cls-2" d="M95.07,47.94c-3,0-5.44-3-5.44-6.72s2.44-6.72,5.44-6.72,5.44,3,5.44,6.72S98.07,47.94,95.07,47.94Zm0-11.44c-1.9,0-3.44,2.12-3.44,4.72s1.54,4.72,3.44,4.72,3.44-2.12,3.44-4.72S97,36.5,95.07,36.5Z"></path> <polygon class="cls-2" points="87.44 58.21 85.49 57.79 87.22 49.72 91.48 48.91 91.48 45.63 93.48 45.63 93.48 50.56 88.9 51.43 87.44 58.21"></polygon> <polygon class="cls-2" points="102.7 58.21 101.24 51.43 96.66 50.56 96.66 45.63 98.66 45.63 98.66 48.91 102.92 49.72 104.65 57.79 102.7 58.21"></polygon> <path class="cls-2" d="M65,58.5a8,8,0,1,1,8-8A8,8,0,0,1,65,58.5Zm0-14a6,6,0,1,0,6,6A6,6,0,0,0,65,44.5Z"></path> <path class="cls-2" d="M125,48.5a8,8,0,1,1,8-8A8,8,0,0,1,125,48.5Zm0-14a6,6,0,1,0,6,6A6,6,0,0,0,125,34.5Z"></path> <rect class="cls-2" x="64" y="47.17" width="2" height="6.65"></rect> <rect class="cls-2" x="61.67" y="49.5" width="6.65" height="2"></rect> <polygon class="cls-2" points="124.33 44.22 121.04 40.93 122.46 39.51 124.17 41.22 127.47 37.09 129.03 38.34 124.33 44.22"></polygon> <rect class="cls-6" x="40" y="134.5" width="20" height="2"></rect> <rect class="cls-6" x="40" y="139.5" width="20" height="2"></rect> <rect class="cls-6" x="40" y="144.5" width="20" height="2"></rect> <rect class="cls-6" x="40" y="149.5" width="6.12" height="2"></rect> </svg> 