<?xml version="1.0" encoding="UTF-8"?> <svg xmlns="http://www.w3.org/2000/svg" id="Layer_1" data-name="Layer 1" viewBox="0 0 200 200"> <defs> <style>.cls-1{fill:#e3e6ec;}.cls-2{fill:#a8abb5;}.cls-3{fill:#232939;}.cls-4{fill:#7d8291;}.cls-5{fill:#43464e;}.cls-6{fill:#008963;}.cls-7{fill:#00523b;}.cls-8{fill:#f04e23;}</style> </defs> <title>raporty</title> <polygon class="cls-1" points="23 32 21 32 21 21 32 21 32 23 23 23 23 32"></polygon> <polygon class="cls-1" points="32 183 21 183 21 172 23 172 23 181 32 181 32 183"></polygon> <polygon class="cls-1" points="183 183 172 183 172 181 181 181 181 172 183 172 183 183"></polygon> <polygon class="cls-1" points="183 32 181 32 181 23 172 23 172 21 183 21 183 32"></polygon> <polygon class="cls-2" points="132 32 132 52 152 52 132 32"></polygon> <path class="cls-3" d="M153,173H51V31h81.42L153,51.59ZM53,171h98V52.41L131.59,33H53Z"></path> <path class="cls-4" d="M75.5,88h-7V66h7Zm-5-2h3V68h-3Z"></path> <path class="cls-5" d="M85.5,88h-7V56h7Zm-5-2h3V58h-3Z"></path> <path class="cls-3" d="M95.5,88h-7V46h7Zm-5-2h3V48h-3Z"></path> <path class="cls-4" d="M115.5,88h-7V66h7Zm-5-2h3V68h-3Z"></path> <path class="cls-5" d="M125.5,88h-7V51h7Zm-5-2h3V53h-3Z"></path> <path class="cls-3" d="M135.5,88h-7V61h7Zm-5-2h3V63h-3Z"></path> <rect class="cls-1" x="62" y="102" width="30" height="20"></rect> <rect class="cls-6" x="102" y="102" width="40" height="6"></rect> <rect class="cls-7" x="102" y="116" width="30" height="6"></rect> <rect class="cls-5" x="62" y="131" width="40" height="2"></rect> <rect class="cls-4" x="62" y="136" width="40" height="2"></rect> <rect class="cls-4" x="62" y="151" width="80" height="2"></rect> <rect class="cls-4" x="62" y="156" width="80" height="2"></rect> <rect class="cls-4" x="62" y="161" width="40" height="2"></rect> <rect class="cls-4" x="62" y="141" width="30" height="2"></rect> <rect class="cls-3" x="62" y="41" width="10" height="2"></rect> <rect class="cls-3" x="108.5" y="41" width="10" height="2"></rect> <circle class="cls-2" cx="137" cy="137" r="5"></circle> <circle class="cls-8" cx="122" cy="137" r="5"></circle> <path class="cls-3" d="M141,113h-3v-2h3Zm-9,0h-3v-2h3Zm-9,0h-3v-2h3Zm-9,0h-3v-2h3Zm-9,0h-3v-2h3Z"></path> <path class="cls-3" d="M137,96.33h-3v-2h3Zm-9,0h-3v-2h3Zm-9,0h-3v-2h3Zm-9,0h-3v-2h3Zm-9,0H98v-2h3Zm-9,0H89v-2h3Zm-9,0H80v-2h3Zm-9,0H71v-2h3Zm-9,0H62v-2h3Z"></path> <rect class="cls-8" x="64" y="79.33" width="2" height="7.67"></rect> <rect class="cls-2" x="104" y="79.33" width="2" height="7.67"></rect> </svg> 