<?xml version="1.0" encoding="UTF-8"?> <svg xmlns="http://www.w3.org/2000/svg" id="Layer_1" data-name="Layer 1" viewBox="0 0 200 200"> <defs> <style>.cls-1{fill:#e3e6ec;}.cls-2{fill:#f04e23;}.cls-3{fill:#232939;}.cls-4{fill:#008963;}</style> </defs> <title>smscykliczne</title> <polygon class="cls-1" points="21 30 19 30 19 19 30 19 30 21 21 21 21 30"></polygon> <polygon class="cls-1" points="30 181 19 181 19 170 21 170 21 179 30 179 30 181"></polygon> <polygon class="cls-1" points="181 181 170 181 170 179 179 179 179 170 181 170 181 181"></polygon> <polygon class="cls-1" points="181 30 179 30 179 21 170 21 170 19 181 19 181 30"></polygon> <path class="cls-2" d="M156.29,51h0a7,7,0,0,1-4.13-1.44A11,11,0,0,1,146.72,51h-80a11,11,0,0,1,0-22h80a11,11,0,0,1,9.61,16.33,3.55,3.55,0,0,0,3.67,2.4h3.23l-2.67,1.82A7.54,7.54,0,0,1,156.29,51Zm-4-3.92.57.5a5.29,5.29,0,0,0,3.4,1.42h0a3.39,3.39,0,0,0,.55,0,5.74,5.74,0,0,1-2.56-3.48l-.12-.42.23-.37A9,9,0,0,0,146.72,31h-80a9,9,0,0,0,0,18h80a9,9,0,0,0,5-1.49Z"></path> <path class="cls-1" d="M40,78.73a4.54,4.54,0,0,0,4.75-3.52A10,10,0,0,1,53.28,60H150a10,10,0,0,1,0,20H53.28a9.94,9.94,0,0,1-5.52-1.66A5.9,5.9,0,0,1,40,78.73Z"></path> <path class="cls-3" d="M49.58,85a6.57,6.57,0,0,1-1.39-.15l.37-1.65a6.54,6.54,0,0,1-2.68.53v-2a4.1,4.1,0,0,0,2.3-.6l1.1,1.67L49,83a4.35,4.35,0,0,0,2-.21l.65,1.89A6.32,6.32,0,0,1,49.58,85Zm106.3,0h-.23V83h.23a8.91,8.91,0,0,0,2.46-.34l.54,1.92A10.81,10.81,0,0,1,155.88,85Zm-6.23,0h-3V83h3Zm-9,0h-3V83h3Zm-9,0h-3V83h3Zm-9,0h-3V83h3Zm-9,0h-3V83h3Zm-9,0h-3V83h3Zm-9,0h-3V83h3Zm-9,0h-3V83h3Zm-9,0h-3V83h3Zm-9,0h-3V83h3Zm-9,0h-.5a11.26,11.26,0,0,1-2.72-.34l.49-1.94a8.85,8.85,0,0,0,2.23.28h.5Zm104.68-4-1.53-1.28a9.47,9.47,0,0,0,1.39-2.3l1.85.76A11.13,11.13,0,0,1,164.33,81ZM48.62,77.16A11,11,0,0,1,48.15,74l2-.09a9.16,9.16,0,0,0,.38,2.67Zm116.07-5a9.13,9.13,0,0,0-.94-2.52l1.75-1a11,11,0,0,1,1.14,3.08ZM51.77,68.85l-1.64-1.14a10.91,10.91,0,0,1,2.26-2.39l1.23,1.58A9.25,9.25,0,0,0,51.77,68.85ZM159.91,66a9.08,9.08,0,0,0-2.55-.83l.33-2a10.68,10.68,0,0,1,3.12,1ZM58.59,65l-.12-2,.68,0h2.38v2H59.15Zm92.94,0h-3V63h3Zm-9,0h-3V63h3Zm-9,0h-3V63h3Zm-9,0h-3V63h3Zm-9,0h-3V63h3Zm-9,0h-3V63h3Zm-9,0h-3V63h3Zm-9,0h-3V63h3Zm-9,0h-3V63h3Zm-9,0h-3V63h3Z"></path> <path class="cls-1" d="M40,168.73a4.54,4.54,0,0,0,4.75-3.52A10,10,0,0,1,53.28,150H100a10,10,0,0,1,0,20H53.28a9.94,9.94,0,0,1-5.52-1.66A5.9,5.9,0,0,1,40,168.73Z"></path> <path class="cls-4" d="M156.72,107.63V100a10,10,0,0,0-10-10h-80a10,10,0,0,0-10,10v30a10,10,0,0,0,10,10h80a9.94,9.94,0,0,0,5.52-1.66,5.9,5.9,0,0,0,7.76.39,4.54,4.54,0,0,1-4.75-3.52,9.94,9.94,0,0,0,1.47-5.21V107.63Z"></path> <path class="cls-3" d="M64,163.5a3.5,3.5,0,1,1,3.5-3.5A3.5,3.5,0,0,1,64,163.5Zm0-5a1.5,1.5,0,1,0,1.5,1.5A1.5,1.5,0,0,0,64,158.5Z"></path> <path class="cls-3" d="M76,163.5a3.5,3.5,0,1,1,3.5-3.5A3.5,3.5,0,0,1,76,163.5Zm0-5a1.5,1.5,0,1,0,1.5,1.5A1.5,1.5,0,0,0,76,158.5Z"></path> <path class="cls-3" d="M88,163.5a3.5,3.5,0,1,1,3.5-3.5A3.5,3.5,0,0,1,88,163.5Zm0-5a1.5,1.5,0,1,0,1.5,1.5A1.5,1.5,0,0,0,88,158.5Z"></path> <rect class="cls-3" x="70" y="99" width="20" height="2"></rect> <rect class="cls-3" x="70" y="104" width="90" height="2"></rect> <rect class="cls-3" x="70" y="109" width="90" height="2"></rect> <rect class="cls-3" x="70" y="114" width="90" height="2"></rect> <rect class="cls-3" x="55" y="34" width="90" height="2"></rect> <rect class="cls-3" x="55" y="39" width="90" height="2"></rect> <rect class="cls-3" x="117" y="44" width="28" height="2"></rect> <rect class="cls-3" x="70" y="119" width="30" height="2"></rect> <rect class="cls-3" x="70" y="124" width="90" height="2"></rect> <rect class="cls-3" x="70" y="129" width="51.13" height="2"></rect> </svg> 