<?xml version="1.0" encoding="UTF-8"?> <svg xmlns="http://www.w3.org/2000/svg" id="Layer_1" data-name="Layer 1" viewBox="0 0 200 200"> <defs> <style>.cls-1{fill:#e3e6ec;}.cls-2{fill:#a8abb5;}.cls-3{fill:#e4e5e7;}.cls-4{fill:#00523b;}.cls-5{fill:#f04e23;}.cls-6{fill:#008963;}.cls-7{fill:#fff;}.cls-8{fill:#232939;}</style> </defs> <title>anaizuj_skutecznosc</title> <polygon class="cls-1" points="21 30 19 30 19 19 30 19 30 21 21 21 21 30"></polygon> <polygon class="cls-1" points="30 181 19 181 19 170 21 170 21 179 30 179 30 181"></polygon> <polygon class="cls-1" points="181 181 170 181 170 179 179 179 179 170 181 170 181 181"></polygon> <polygon class="cls-1" points="181 30 179 30 179 21 170 21 170 19 181 19 181 30"></polygon> <rect class="cls-2" x="35.28" y="129" width="89.44" height="2" transform="translate(-72.05 143.41) rotate(-63.43)"></rect> <rect class="cls-2" x="119" y="85.28" width="2" height="89.44" transform="translate(-45.47 67.39) rotate(-26.57)"></rect> <circle class="cls-3" cx="140" cy="40" r="2.5"></circle> <circle class="cls-4" cx="150" cy="150" r="2.5"></circle> <path class="cls-5" d="M55,40a5,5,0,1,1-5-5A5,5,0,0,1,55,40Z"></path> <circle class="cls-6" cx="100" cy="110" r="50"></circle> <circle class="cls-7" cx="100" cy="110" r="41.67"></circle> <circle class="cls-6" cx="100" cy="110" r="33.33"></circle> <circle class="cls-7" cx="100" cy="110" r="25"></circle> <circle class="cls-6" cx="100" cy="110" r="16.67"></circle> <circle class="cls-7" cx="100" cy="110" r="8.33"></circle> <rect class="cls-2" x="45.49" y="72.68" width="109.51" height="2"></rect> <path class="cls-8" d="M157,76a4,4,0,0,1-3.32-1.76l-.08-.14C153.46,73.82,138.88,46,100,46S46.54,73.82,46.4,74.1l-.06.1A4,4,0,1,1,43,68v2a2,2,0,1,0,1.66,3.12C44.76,72.91,59.85,44,100,44s55.24,28.91,55.39,29.2A2,2,0,0,0,157,74a2,2,0,0,0,0-4V68a4,4,0,0,1,0,8Z"></path> <rect class="cls-8" x="99" y="30" width="2" height="105.83"></rect> <rect class="cls-8" x="104" y="132.1" width="2" height="14.14" transform="translate(-67.65 115.01) rotate(-45)"></rect> <rect class="cls-8" x="104" y="122.1" width="2" height="14.14" transform="translate(-60.58 112.08) rotate(-45)"></rect> <rect class="cls-8" x="104" y="112.1" width="2" height="14.14" transform="translate(-53.51 109.15) rotate(-45)"></rect> <rect class="cls-8" x="87.93" y="118.17" width="14.14" height="2" transform="translate(-56.44 102.08) rotate(-45)"></rect> <rect class="cls-8" x="87.93" y="128.17" width="14.14" height="2" transform="translate(-63.51 105.01) rotate(-45)"></rect> <rect class="cls-8" x="87.93" y="138.17" width="14.14" height="2" transform="translate(-70.58 107.94) rotate(-45)"></rect> <rect class="cls-8" x="104" y="127.1" width="2" height="14.14" transform="translate(-64.12 113.54) rotate(-45)"></rect> <rect class="cls-8" x="104" y="117.1" width="2" height="14.14" transform="translate(-57.05 110.61) rotate(-45)"></rect> <rect class="cls-8" x="104" y="107.1" width="2" height="14.14" transform="translate(-49.97 107.68) rotate(-45)"></rect> <rect class="cls-8" x="87.93" y="113.17" width="14.14" height="2" transform="translate(-52.9 100.61) rotate(-45)"></rect> <rect class="cls-8" x="87.93" y="123.17" width="14.14" height="2" transform="translate(-59.97 103.54) rotate(-45)"></rect> <rect class="cls-8" x="87.93" y="133.17" width="14.14" height="2" transform="translate(-67.05 106.47) rotate(-45)"></rect> <polygon class="cls-8" points="95.64 35.78 94.22 34.36 100 28.59 105.78 34.36 104.36 35.78 100 31.41 95.64 35.78"></polygon> <path class="cls-8" d="M53.36,147.52l-.83,0,.12-2a11.9,11.9,0,0,0,2.86-.17l.35,2A13.92,13.92,0,0,1,53.36,147.52Zm-7.17-1.91a14.37,14.37,0,0,1-2.67-2l1.37-1.45a12.84,12.84,0,0,0,2.3,1.71Zm15.74-.93-1.19-1.6a12.94,12.94,0,0,0,2.08-2l1.53,1.28A14.21,14.21,0,0,1,61.93,144.68ZM39.87,138.1a14.3,14.3,0,0,1-.77-3.24l2-.23a12.53,12.53,0,0,0,.67,2.78Zm27.46-1.62-2-.46a12.4,12.4,0,0,0,.33-2.85l1.49,0h.51A14.81,14.81,0,0,1,67.33,136.48ZM41.73,129l-1.88-.67a14.64,14.64,0,0,1,1.49-3L43,126.4A12.76,12.76,0,0,0,41.73,129Zm22.65-1.38a12.58,12.58,0,0,0-1.59-2.39l1.53-1.29a14.26,14.26,0,0,1,1.84,2.78Zm-17.23-5.1-1-1.73a14.84,14.84,0,0,1,3.06-1.33l.58,1.92A12,12,0,0,0,47.15,122.48Zm11.06-.67a12.45,12.45,0,0,0-2.75-.82l.34-2a14.2,14.2,0,0,1,3.2,1Z"></path> <path class="cls-8" d="M152.5,128a7.32,7.32,0,0,1-.81,0l.2-2a6,6,0,0,0,2.48-.27l.62,1.91A8.05,8.05,0,0,1,152.5,128ZM146,124.74a7.93,7.93,0,0,1-1.37-3l2-.42a5.89,5.89,0,0,0,1,2.27Zm13.78-1.49-1.82-.81a6,6,0,0,0,.51-2.44l2-.1v.1A7.87,7.87,0,0,1,159.82,123.25Zm-12.21-6.75L146,115.34a8.14,8.14,0,0,1,2.46-2.25l1,1.73A6,6,0,0,0,147.61,116.5Zm8.87-1a6.12,6.12,0,0,0-2.18-1.23l.6-1.91a8,8,0,0,1,2.9,1.64Z"></path> </svg> 