<?xml version="1.0" encoding="UTF-8"?> <svg xmlns="http://www.w3.org/2000/svg" id="Layer_1" data-name="Layer 1" viewBox="0 0 200 200"> <defs> <style>.cls-1{fill:#e3e6ec;}.cls-2{fill:#a8abb5;}.cls-3{fill:#fff;}.cls-4{fill:#232939;}.cls-5{fill:#00523b;}.cls-6{fill:#008963;}.cls-7{fill:#f04e23;}</style> </defs> <title>edytory</title> <polygon class="cls-1" points="21 33 19 33 19 22 30 22 30 24 21 24 21 33"></polygon> <polygon class="cls-1" points="30 184 19 184 19 173 21 173 21 182 30 182 30 184"></polygon> <polygon class="cls-1" points="181 184 170 184 170 182 179 182 179 173 181 173 181 184"></polygon> <polygon class="cls-1" points="181 33 179 33 179 24 170 24 170 22 181 22 181 33"></polygon> <rect class="cls-1" x="40" y="33" width="80" height="60"></rect> <rect class="cls-2" x="40" y="123" width="40" height="40"></rect> <rect class="cls-3" x="45" y="128" width="30" height="30"></rect> <rect class="cls-4" x="120" y="42" width="1.5" height="2"></rect> <rect class="cls-4" x="124.05" y="42" width="1.91" height="2"></rect> <polygon class="cls-4" points="131 44.5 129 44.5 129 44 128.5 44 128.5 42 131 42 131 44.5"></polygon> <path class="cls-4" d="M131,97.7h-2V94.85h2Zm0-6.65h-2V88.2h2Zm0-6.65h-2V81.55h2Zm0-6.65h-2V74.9h2Zm0-6.65h-2V68.25h2Zm0-6.65h-2V61.6h2Zm0-6.65h-2V55h2Zm0-6.65h-2V48.3h2Z"></path> <polygon class="cls-4" points="131 104 128.5 104 128.5 102 129 102 129 101.5 131 101.5 131 104"></polygon> <path class="cls-4" d="M124.34,104h-3.12v-2h3.12Zm-7.29,0h-3.12v-2h3.12Zm-7.28,0h-3.12v-2h3.12Zm-7.28,0H99.37v-2h3.12Zm-7.29,0H92.08v-2H95.2Zm-7.28,0H84.8v-2h3.12Zm-7.29,0H77.51v-2h3.12Zm-7.28,0H70.23v-2h3.12Zm-7.28,0H63v-2h3.12Zm-7.29,0H55.66v-2h3.12Z"></path> <polygon class="cls-4" points="51.5 104 49 104 49 101.5 51 101.5 51 102 51.5 102 51.5 104"></polygon> <rect class="cls-4" x="49" y="97.04" width="2" height="1.91"></rect> <rect class="cls-4" x="49" y="93" width="2" height="1.5"></rect> <rect class="cls-4" x="80" y="127" width="1.5" height="2"></rect> <rect class="cls-4" x="84.05" y="127" width="1.91" height="2"></rect> <polygon class="cls-4" points="91 129.5 89 129.5 89 129 88.5 129 88.5 127 91 127 91 129.5"></polygon> <path class="cls-4" d="M91,167.19H89V164h2Zm0-7.54H89v-3.23h2Zm0-7.53H89v-3.24h2Zm0-7.54H89v-3.23h2ZM91,137H89v-3.23h2Z"></path> <polygon class="cls-4" points="91 174 88.5 174 88.5 172 89 172 89 171.5 91 171.5 91 174"></polygon> <path class="cls-4" d="M84.19,174H81v-2h3.23Zm-7.54,0H73.42v-2h3.23Zm-7.53,0H65.88v-2h3.24Zm-7.54,0H58.35v-2h3.23ZM54,174H50.81v-2H54Z"></path> <polygon class="cls-4" points="46.5 174 44 174 44 171.5 46 171.5 46 172 46.5 172 46.5 174"></polygon> <rect class="cls-4" x="44" y="167.04" width="2" height="1.91"></rect> <rect class="cls-4" x="44" y="163" width="2" height="1.5"></rect> <rect class="cls-1" x="100" y="113" width="50" height="50"></rect> <rect class="cls-3" x="105" y="118" width="40" height="40"></rect> <rect class="cls-4" x="150" y="117" width="1.5" height="2"></rect> <rect class="cls-4" x="154.05" y="117" width="1.91" height="2"></rect> <polygon class="cls-4" points="161 119.5 159 119.5 159 119 158.5 119 158.5 117 161 117 161 119.5"></polygon> <path class="cls-4" d="M161,167.58h-2v-3h2Zm0-6.87h-2v-3h2Zm0-6.87h-2V150.9h2Zm0-6.87h-2V144h2Zm0-6.87h-2v-2.94h2Zm0-6.86h-2v-3h2Zm0-6.87h-2v-3h2Z"></path> <polygon class="cls-4" points="161 174 158.5 174 158.5 172 159 172 159 171.5 161 171.5 161 174"></polygon> <path class="cls-4" d="M154.58,174h-3v-2h3Zm-6.87,0h-3v-2h3Zm-6.87,0H137.9v-2h2.94ZM134,174H131v-2H134Zm-6.87,0h-2.94v-2h2.94Zm-6.86,0h-2.95v-2h2.95Zm-6.87,0h-3v-2h3Z"></path> <polygon class="cls-4" points="106.5 174 104 174 104 171.5 106 171.5 106 172 106.5 172 106.5 174"></polygon> <rect class="cls-4" x="104" y="167.04" width="2" height="1.91"></rect> <rect class="cls-4" x="104" y="163" width="2" height="1.5"></rect> <rect class="cls-3" x="45" y="38" width="70" height="50"></rect> <polygon class="cls-5" points="45 73 65 48 85 73 85 88 45 88 45 73"></polygon> <polygon class="cls-6" points="110 88 90 63 70 88 110 88"></polygon> <circle class="cls-2" cx="100" cy="53" r="5"></circle> <polygon class="cls-4" points="71 150 69 150 69 135 55 135 55 150 53 150 53 133 71 133 71 150"></polygon> <path class="cls-4" d="M52,153a3,3,0,1,1,3-3A3,3,0,0,1,52,153Zm0-4a1,1,0,1,0,1,1A1,1,0,0,0,52,149Z"></path> <path class="cls-4" d="M68,153a3,3,0,1,1,3-3A3,3,0,0,1,68,153Zm0-4a1,1,0,1,0,1,1A1,1,0,0,0,68,149Z"></path> <rect class="cls-4" x="54" y="137" width="16" height="2"></rect> <circle class="cls-7" cx="125" cy="138" r="10"></circle> <polygon class="cls-3" points="123.08 134.67 123.08 141.33 128.08 138 123.08 134.67"></polygon> <rect class="cls-2" x="140" y="42" width="20" height="2"></rect> <rect class="cls-2" x="140" y="47" width="20" height="2"></rect> <rect class="cls-2" x="140" y="52" width="20" height="2"></rect> <rect class="cls-2" x="140" y="57" width="10" height="2"></rect> <rect class="cls-2" x="140" y="67" width="20" height="2"></rect> <rect class="cls-2" x="140" y="72" width="20" height="2"></rect> <rect class="cls-2" x="140" y="77" width="20" height="2"></rect> <rect class="cls-2" x="140" y="82" width="10" height="2"></rect> <rect class="cls-2" x="140" y="92" width="20" height="2"></rect> <rect class="cls-2" x="140" y="97" width="20" height="2"></rect> <rect class="cls-2" x="140" y="102" width="11" height="2"></rect> </svg> 