<?xml version="1.0" encoding="UTF-8"?> <svg xmlns="http://www.w3.org/2000/svg" id="Layer_1" data-name="Layer 1" viewBox="0 0 200 200"> <defs> <style>.cls-1{fill:#e3e6ec;}.cls-2{fill:#a8abb5;}.cls-3{fill:#f04e23;}.cls-4{fill:#008963;}.cls-5,.cls-6{fill:#232939;}.cls-6{font-size:30px;font-family:OCRAExtended, OCR A Extended;}</style> </defs> <title>integracje</title> <polygon class="cls-1" points="21 30 19 30 19 19 30 19 30 21 21 21 21 30"></polygon> <polygon class="cls-1" points="30 181 19 181 19 170 21 170 21 179 30 179 30 181"></polygon> <polygon class="cls-1" points="181 181 170 181 170 179 179 179 179 170 181 170 181 181"></polygon> <polygon class="cls-1" points="181 30 179 30 179 21 170 21 170 19 181 19 181 30"></polygon> <rect class="cls-2" x="113.53" y="123.73" width="46.47" height="46.47" rx="2.79" ry="2.79"></rect> <rect class="cls-3" x="49.06" y="109" width="46.47" height="46.47" rx="2.79" ry="2.79"></rect> <rect class="cls-4" x="113.53" y="53.8" width="46.47" height="46.47" rx="2.79" ry="2.79"></rect> <rect class="cls-1" x="49.06" y="39.06" width="46.47" height="46.47" rx="2.79" ry="2.79"></rect> <path class="cls-5" d="M83.68,77.47H42.79A3.79,3.79,0,0,1,39,73.68V32.79A3.79,3.79,0,0,1,42.79,29H83.68a3.79,3.79,0,0,1,3.79,3.79V73.68A3.79,3.79,0,0,1,83.68,77.47ZM42.79,31A1.79,1.79,0,0,0,41,32.79V73.68a1.79,1.79,0,0,0,1.79,1.79H83.68a1.79,1.79,0,0,0,1.79-1.79V32.79A1.79,1.79,0,0,0,83.68,31Z"></path> <path class="cls-5" d="M83.68,147.41H42.79A3.79,3.79,0,0,1,39,143.62V102.73a3.79,3.79,0,0,1,3.79-3.79H83.68a3.79,3.79,0,0,1,3.79,3.79v40.89A3.79,3.79,0,0,1,83.68,147.41ZM42.79,100.94A1.79,1.79,0,0,0,41,102.73v40.89a1.79,1.79,0,0,0,1.79,1.79H83.68a1.79,1.79,0,0,0,1.79-1.79V102.73a1.79,1.79,0,0,0-1.79-1.79Z"></path> <path class="cls-5" d="M147.68,92.74H106.79A3.79,3.79,0,0,1,103,89V48.05a3.79,3.79,0,0,1,3.79-3.78h40.89a3.79,3.79,0,0,1,3.79,3.78V89A3.79,3.79,0,0,1,147.68,92.74ZM106.79,46.27A1.79,1.79,0,0,0,105,48.05V89a1.79,1.79,0,0,0,1.79,1.79h40.89A1.79,1.79,0,0,0,149.47,89V48.05a1.79,1.79,0,0,0-1.79-1.78Z"></path> <path class="cls-5" d="M147.68,162.67H106.79a3.79,3.79,0,0,1-3.79-3.79V118a3.79,3.79,0,0,1,3.79-3.79h40.89a3.79,3.79,0,0,1,3.79,3.79v40.89A3.79,3.79,0,0,1,147.68,162.67ZM106.79,116.2A1.79,1.79,0,0,0,105,118v40.89a1.79,1.79,0,0,0,1.79,1.79h40.89a1.79,1.79,0,0,0,1.79-1.79V118a1.79,1.79,0,0,0-1.79-1.79Z"></path> <path class="cls-5" d="M100,36V34h2v2Zm6,0V34h2v2Zm6,0V34h2v2Z"></path> <path class="cls-5" d="M158,106.73h2v2h-2Zm0,6h2v2h-2Zm0,6h2v2h-2Z"></path> <path class="cls-5" d="M92,164v2H90v-2Zm-6,0v2H84v-2Zm-6,0v2H78v-2Z"></path> <path class="cls-5" d="M46,97H44V95h2Zm0-6H44V89h2Zm0-6H44V83h2Z"></path> <circle class="cls-2" cx="52" cy="162" r="2"></circle> <circle class="cls-1" cx="65" cy="165" r="5"></circle> <circle class="cls-2" cx="138" cy="38" r="2"></circle> <circle class="cls-2" cx="92" cy="93" r="2"></circle> <circle class="cls-1" cx="100" cy="103.25" r="3.31"></circle> <circle class="cls-1" cx="125" cy="35" r="5"></circle> <text class="cls-6" transform="translate(54 62.5)">A</text> <text class="cls-6" transform="translate(53 132.5)">C</text> <text class="cls-6" transform="translate(118 77.5)">B</text> <text class="cls-6" transform="translate(119 147.5)">D</text> </svg> 