<?xml version="1.0" encoding="UTF-8"?> <svg xmlns="http://www.w3.org/2000/svg" id="Layer_1" data-name="Layer 1" viewBox="0 0 200 200"> <defs> <style>.cls-1{fill:#e3e6ec;}.cls-2{fill:#008963;}.cls-3{fill:#a8abb5;}.cls-4{fill:#232939;}.cls-5{fill:#f04e23;}.cls-6{fill:#00523b;}</style> </defs> <title>kanal_zwrotny</title> <polygon class="cls-1" points="21 30 19 30 19 19 30 19 30 21 21 21 21 30"></polygon> <polygon class="cls-1" points="30 181 19 181 19 170 21 170 21 179 30 179 30 181"></polygon> <polygon class="cls-1" points="181 181 170 181 170 179 179 179 179 170 181 170 181 181"></polygon> <polygon class="cls-1" points="181 30 179 30 179 21 170 21 170 19 181 19 181 30"></polygon> <path class="cls-1" d="M160,54.5A12.53,12.53,0,1,1,147.47,42,12.53,12.53,0,0,1,160,54.5Z"></path> <path class="cls-2" d="M120,65c0-13.81-17.91-25-40-25S40,51.19,40,65,57.91,90,80,90a62.89,62.89,0,0,0,10.71-.91c1.16,2.26,4.8,7.29,14.29,7.29,0,0-4.81-4.83-5-9.74C112,82.32,120,74.25,120,65Z"></path> <path class="cls-3" d="M130.06,95c-16.53,0-29.93,8.38-29.93,18.71,0,5.51,3.8,10.46,9.86,13.88-.11,4.94-5,9.83-5,9.83,8.37,0,12.18-3.9,13.76-6.38a45.85,45.85,0,0,0,11.3,1.38c16.54,0,29.94-8.38,29.94-18.71S146.6,95,130.06,95Z"></path> <path class="cls-4" d="M100.93,170.47l-1.76-.94,14.25-26.75a4.06,4.06,0,0,1,2.3-1.95c2.24-.85,5.31-.34,9.14,1.52,3.62,1.75,10.53,3,14.1.76a4.73,4.73,0,0,0,2.22-4.36c0-9.78,2.28-13.34,3.26-14.42a3.13,3.13,0,0,0,.81-2.26,1.76,1.76,0,0,0-.68-1.28l-1.17-.89,1.26-.76a5.2,5.2,0,0,0,1.54-1.42c.51-.8.62-1-.1-3.15s-.65-3.69.09-4.72a2.74,2.74,0,0,1,2.36-1.1c2.69,0,4.77-.62,5.29-1.59s-.16-2.08-.75-3a129.51,129.51,0,0,1-8.87-16.26c-.46-1.53.05-4.27,1.52-8.14.49-1.28,2.16-17.31-7.31-31C130.31,37,116.68,31,97.93,31,79.36,31,65.26,36.3,56,46.75,45.14,59.07,44.34,75.2,44.92,79.88c1.28,10.36,5,19,12.17,28,7.67,9.68,8.19,20.33,4.79,25.42l-3,4.5-1.66-1.1,3-4.5c2.58-3.87,2.82-13.58-4.7-23.08-7.37-9.3-11.25-18.25-12.59-29-.65-5.26.16-21.75,11.6-34.69C64.16,34.53,78.76,29,97.93,29c19.44,0,33.63,6.26,42.15,18.61,9.39,13.61,8.44,30.47,7.53,32.87-1.83,4.83-1.59,6.47-1.48,6.86a134.17,134.17,0,0,0,8.63,15.74c1.3,2,1.58,3.67.84,5-1.24,2.3-4.95,2.64-7,2.64-.54,0-.68.2-.74.27-.26.36-.34,1.31.19,2.91.94,2.81.73,3.52-.09,4.83a6.08,6.08,0,0,1-1.25,1.39,3.71,3.71,0,0,1,.58,1.74,5.08,5.08,0,0,1-1.32,3.78c-.65.71-2.74,3.74-2.74,13.08a6.79,6.79,0,0,1-3.16,6.06c-4.41,2.76-12,1.28-16-.66s-6.3-1.89-7.48-1.48a2.15,2.15,0,0,0-1.29,1Z"></path> <path class="cls-5" d="M90.19,143.51c0-8.65-11.22-15.66-25.06-15.66s-25.07,7-25.07,15.66,11.22,15.67,25.07,15.67A38.52,38.52,0,0,0,74.58,158c1.33,2.07,4.52,5.34,11.53,5.34,0,0-4.09-4.09-4.18-8.23C87,152.27,90.19,148.12,90.19,143.51Z"></path> <rect class="cls-4" x="65.29" y="49" width="59.71" height="2"></rect> <rect class="cls-4" x="65.29" y="54" width="59.71" height="2"></rect> <rect class="cls-4" x="65.29" y="59" width="59.71" height="2"></rect> <rect class="cls-4" x="65.29" y="64" width="59.71" height="2"></rect> <rect class="cls-4" x="96.19" y="104" width="40.21" height="2"></rect> <rect class="cls-4" x="96.19" y="109" width="40.21" height="2"></rect> <rect class="cls-4" x="96.19" y="114" width="40.21" height="2"></rect> <rect class="cls-4" x="96.19" y="119" width="40.21" height="2"></rect> <rect class="cls-4" x="65.29" y="69" width="59.71" height="2"></rect> <rect class="cls-4" x="65.29" y="74" width="59.71" height="2"></rect> <path class="cls-4" d="M58,145v-2h2v2Zm6,0v-2h2v2Zm6,0v-2h2v2Z"></path> <path class="cls-4" d="M154,38h2v2h-2Zm0,6h2v2h-2Zm0,6h2v2h-2Z"></path> <path class="cls-1" d="M79.75,105.42a4.33,4.33,0,1,1-4.33-4.32A4.33,4.33,0,0,1,79.75,105.42Z"></path> <path class="cls-6" d="M132.47,157.47A7.47,7.47,0,1,1,125,150,7.46,7.46,0,0,1,132.47,157.47Z"></path> </svg> 