<svg id="Layer_1" data-name="Layer 1" xmlns="http://www.w3.org/2000/svg" viewBox="0 0 200 200"><defs><style>.cls-1{fill:#e3e6ec}.cls-2{fill:#232939}.cls-3{fill:#a8abb5}.cls-4{fill:#f04e23}.cls-5{fill:#008963}.cls-6{fill:#fff}</style></defs><title>onas_6</title><path class="cls-1" d="M21 30h-2V19h11v2h-9v9zm9 151H19v-11h2v9h9v2zm151 0h-11v-2h9v-9h2v11zm0-151h-2v-9h-9v-2h11v11z"/><path class="cls-2" d="M87.42 84h24.88v2H87.42z"/><path class="cls-3" d="M87.42 89h24.88v2H87.42zm0 5h24.88v2H87.42zm0 5h12.44v2H87.42z"/><path class="cls-2" d="M120 84h24.88v2H120z"/><path class="cls-3" d="M120 89h24.88v2H120zm0 5h24.88v2H120zm0 5h12.44v2H120zM87.42 60h25.17v20H87.42zM120 60h25.17v20H120z"/><path class="cls-4" d="M120 125h10v45h-10z"/><path class="cls-5" d="M40.83 30h120v15h-120z"/><path class="cls-2" d="M46.83 36.5h3.2v2h-3.2zm6.4 0h3.2v2h-3.2zm6.4 0h3.2v2h-3.2zm13.93 0h21.82v2H73.56z"/><path class="cls-6" d="M95.38 36.5h54.13v2H95.38z"/><path class="cls-2" d="M40.83 44h120v2h-120zm0 105H115v2H40.83zm94.17 0h25v2h-25z"/><path class="cls-2" d="M161.83 161H135v-2h24.83V31h-118v128H115v2H39.83V29h122v132z"/><path class="cls-2" d="M55 84h24.88v2H55z"/><path class="cls-3" d="M55 89h24.88v2H55zm0 5h24.88v2H55zm0 5h12.44v2H55zm0 20h54.88v2H55zm0 5h54.88v2H55zm0 5h54.88v2H55zm0 5h27.44v2H55z"/><path class="cls-2" d="M68 30h2v15h-2zm57 91a26 26 0 1 1 26-26 26 26 0 0 1-26 26zm0-50a24 24 0 1 0 24 24 24 24 0 0 0-24-24z"/><circle class="cls-3" cx="125" cy="95" r="20"/><path class="cls-1" d="M110.86 109.14a20 20 0 0 1 28.28-28.28z"/><path class="cls-2" d="M124 120h2v5h-2z"/><path class="cls-2" d="M131 171h-12v-47h12zm-10-2h8v-43h-8z"/><path class="cls-3" d="M156 146h-21v-2h19V51H46.83v93H115v2H44.83V49H156v97z"/><path class="cls-3" d="M54.83 60H80v20H54.83z"/><path class="cls-2" d="M54.83 109H75v2H54.83zm0 5H60v2h-5.17zm10 0H70v2h-5.17z"/></svg>