<svg id="Layer_1" data-name="Layer 1" xmlns="http://www.w3.org/2000/svg" viewBox="0 0 200 200"><defs><style>.cls-1{fill:#e3e6ec}.cls-2,.cls-6{fill:#232939}.cls-2{stroke:#fff;stroke-miterlimit:10;stroke-width:.75px}.cls-3{fill:#00523b}.cls-4{fill:#008963}.cls-5{fill:#a8abb5}.cls-7{fill:#7d8291}</style></defs><title>onas_5</title><path class="cls-1" d="M21 30h-2V19h11v2h-9v9zm9 151H19v-11h2v9h9v2zm151 0h-11v-2h9v-9h2v11zm0-151h-2v-9h-9v-2h11v11z"/><path class="cls-2" d="M143.8 162.15a247.6 247.6 0 0 1-16.73-27.47h2.59a1.68 1.68 0 0 0 1.68-1.68v-5.49a1.68 1.68 0 0 0-1.68-1.68h-7a172.12 172.12 0 0 1-7.17-18.56h4.07a1.68 1.68 0 0 0 1.68-1.68v-5.48a1.68 1.68 0 0 0-1.68-1.68h-6.44a209.72 209.72 0 0 1-7.36-50.53h1a1.68 1.68 0 0 0 1.68-1.68v-5.48a1.68 1.68 0 0 0-1.68-1.68h-5.56v-5.63a1.69 1.69 0 0 0-3.37 0v5.63h-5.62a1.68 1.68 0 0 0-1.68 1.68v5.48a1.68 1.68 0 0 0 1.68 1.68h1a209.72 209.72 0 0 1-7.36 50.53h-6.43a1.68 1.68 0 0 0-1.68 1.68v5.48a1.68 1.68 0 0 0 1.68 1.68h4.07a172.12 172.12 0 0 1-7.17 18.56h-6.95a1.68 1.68 0 0 0-1.68 1.68V133a1.68 1.68 0 0 0 1.68 1.68H72a248.14 248.14 0 0 1-16.73 27.47 1.68 1.68 0 0 0-.15 1.75 1.7 1.7 0 0 0 1.5.92h17.32a1.68 1.68 0 0 0 1.68-1.68c0-9.84 10.66-21.73 23.9-21.73s23.89 11.89 23.89 21.73a1.68 1.68 0 0 0 1.68 1.68h17.36a1.7 1.7 0 0 0 1.5-.92 1.68 1.68 0 0 0-.15-1.75zm-58.17-50.62l4.22 5.5-7.38 3c1.11-2.81 2.17-5.63 3.16-8.5zm1.27-3.87l.12-.39h7.43c-.77 2.38-1.58 4.74-2.44 7.06zm7.1 10.91a1.25 1.25 0 0 0 .15-.36c1.39-3.56 2.66-7.21 3.84-10.93h3.06q1.76 5.58 3.83 10.93a1.61 1.61 0 0 0 .15.36c1 2.47 2 4.89 3 7.26H91c1-2.37 2-4.83 3-7.26zm22.56 1.43l-7.38-3 4.22-5.5c.99 2.9 2.05 5.72 3.16 8.5zM112 107.27c0 .13.08.26.13.39l-5.13 6.67q-1.29-3.48-2.44-7.06zm-.26 18.56q-1.14-2.47-2.2-5l8.82 3.53c.22.51.44 1 .66 1.5zM95.13 68.32l8.69 8.68-10.59 4.17c.77-4.24 1.4-8.51 1.9-12.85zm9.36 4.68l-8.08-8.1 6.66-5q.51 6.59 1.42 13.1zm-8.62-11.9c.27-3.34.46-6.74.6-10.19l5.15 5.84zm9.71 18.9c.94 5.36 2.11 10.68 3.48 16L94.48 84.29zm-3-27.21l-4.24-4.89h4.11c.05 1.63.1 3.26.18 4.86zm-8.69-10.37h11.25v2.12H93.89zm-1.74 44.31l14.58 11.7h-17.4c1.06-3.91 2-7.8 2.82-11.7zM81.1 101.79h36.83v2.12H81.1zm-.44 22.54l8.82-3.53q-1.07 2.55-2.2 5H80c.22-.47.45-.96.66-1.47zm-9.61 4.87H128v2.11H71.05zm55.64 32.26c-1.07-11.19-12.56-23.41-27.17-23.41s-26.11 12.22-27.18 23.41H59.81c.57-.83 1.26-1.85 2-3h6.62a1.69 1.69 0 0 0 0-3.37H64c1.83-2.88 4-6.36 6.25-10.34h7.32a1.68 1.68 0 1 0 0-3.36h-5.41c1.18-2.12 2.39-4.35 3.6-6.68h47.51c1.21 2.33 2.42 4.56 3.6 6.68h-5.43a1.68 1.68 0 1 0 0 3.36h7.33c2.28 4 4.41 7.46 6.24 10.34h-4.44a1.69 1.69 0 0 0 0 3.37h6.62c.77 1.18 1.46 2.2 2 3z"/><path class="cls-3" d="M29.81 110.91v30l21.43-15-21.43-15zm38.57 15l21.43 15v-30l-21.43 15z"/><path class="cls-4" d="M59.81 131.91l-8.57-6-21.43 15h60l-21.43-15-8.57 6z"/><path class="cls-4" d="M29.81 110.91l21.43 15 8.57 6 8.57-6 21.43-15h-60z"/><path class="cls-3" d="M59.81 134.41l-8.57-8.5 8.57 6 8.57-6-8.57 8.5z"/><path class="cls-5" d="M114.29 60.36v19.28L128.06 70l-13.77-9.64zm24.8 9.64l13.77 9.64V60.36L139.09 70z"/><path class="cls-1" d="M133.57 73.86L128.06 70l-13.77 9.64h38.57L139.09 70l-5.52 3.86z"/><path class="cls-1" d="M114.29 60.36L128.06 70l5.51 3.86 5.52-3.86 13.77-9.64h-38.57z"/><path class="cls-5" d="M133.57 75.46L128.06 70l5.51 3.86 5.52-3.86-5.52 5.46z"/><path class="cls-6" d="M59.81 114.75a6 6 0 1 1 6-6 6 6 0 0 1-6 6zm0-10a4 4 0 1 0 4 4 4 4 0 0 0-4-4z"/><path class="cls-6" d="M59.81 122.25c-10.87 0-11-10.89-11-11v-5c0-.11.13-11 11-11s11 10.89 11 11v5a3.5 3.5 0 0 1-7 0v-7.5h2v7.5a1.5 1.5 0 0 0 3 0v-5c0-.37-.14-9-9-9s-9 8.63-9 9v5c0 .37.14 9 9 9 5.42 0 7.59-2.32 8.45-4.27l1.83.81c-1.09 2.49-3.78 5.46-10.28 5.46z"/><path class="cls-5" d="M135 123.28a10 10 0 0 0-9.75 10v10H157v-20z"/><path class="cls-7" d="M167 133.28a10 10 0 1 0-20 0v10h20v-10z"/><path class="cls-6" d="M123.5 142.28h44.06v2H123.5z"/><path class="cls-6" d="M141.5 143.28h2v20h-2zm-1.5-5a3 3 0 1 1 3-3 3 3 0 0 1-3 3zm0-4a1 1 0 1 0 1 1 1 1 0 0 0-1-1z"/><path class="cls-6" d="M141 133.28h-2v-14h-1v-2h3v16z"/><circle class="cls-3" cx="59.81" cy="56.92" r="2.92"/><path class="cls-4" d="M58.32 71.05a4.76 4.76 0 1 1-4.75-4.75 4.76 4.76 0 0 1 4.75 4.75z"/><path class="cls-6" d="M152.81 73h-.82l.12-2a12.35 12.35 0 0 0 2.85-.17l.35 2a14.89 14.89 0 0 1-2.5.17zm-7.14-1.91a13.93 13.93 0 0 1-2.66-2l1.37-1.45a12.37 12.37 0 0 0 2.29 1.7zm15.7-.93l-1.2-1.6a12.85 12.85 0 0 0 2.08-2l1.53 1.28a14.44 14.44 0 0 1-2.41 2.28zm-22-6.55a14.34 14.34 0 0 1-.77-3.23l2-.24a12 12 0 0 0 .66 2.78zM166.74 62l-2-.46a12.32 12.32 0 0 0 .33-2.84l2-.06v.06a14.66 14.66 0 0 1-.33 3.3zm-25.51-7.49l-1.88-.68a15 15 0 0 1 1.48-3l1.68 1.1a11.94 11.94 0 0 0-1.28 2.53zm22.57-1.38a12.66 12.66 0 0 0-1.59-2.38l1.53-1.29a14.42 14.42 0 0 1 1.84 2.76zM146.63 48l-1-1.73a14.21 14.21 0 0 1 3-1.32l.58 1.91a12.23 12.23 0 0 0-2.58 1.14zm11-.67a12 12 0 0 0-2.74-.81l.34-2a13.6 13.6 0 0 1 3.19.94zM42.16 63.63l-.35-2a7.25 7.25 0 0 0 2.38-.87l1 1.73a9.14 9.14 0 0 1-3.03 1.14zm-6.28-1.1a9.27 9.27 0 0 1-2.47-2.07l1.53-1.29a7.23 7.23 0 0 0 1.94 1.63zm13.4-4.89L47.4 57a7.31 7.31 0 0 0 .44-2.5l2-.05v.05a9.3 9.3 0 0 1-.56 3.14zm-18.07-3.16a9.42 9.42 0 0 1 .55-3.16l1.89.68a7.2 7.2 0 0 0-.44 2.48zm14.89-4.75a7.24 7.24 0 0 0-2-1.62l1-1.74a9.36 9.36 0 0 1 2.49 2.07zm-9.25-1.59l-1-1.73a9.14 9.14 0 0 1 3-1.11l.35 2a7.12 7.12 0 0 0-2.35.84z"/></svg>