<svg xmlns="http://www.w3.org/2000/svg" viewBox="0 0 162 162"><defs><style>.cls-1{fill:#e3e6ec}.cls-2{fill:#a8abb5}.cls-3{fill:#232939}.cls-4{fill:#fff}.cls-5{fill:#00523b}.cls-6{fill:#008963}</style></defs><title>onas_1</title><g id="Warstwa_2" data-name="Warstwa 2"><g id="Layer_1" data-name="Layer 1"><path class="cls-1" d="M2 11H0V0h11v2H2v9zm9 151H0v-11h2v9h9v2zm151 0h-11v-2h9v-9h2v11zm0-151h-2V2h-9V0h11v11z"/><rect class="cls-2" x="26" y="77" width="110" height="69" rx="3" ry="3"/><path class="cls-3" d="M131 152H31c-10.87 0-11-10.89-11-11v-1h122v1c0 10.87-10.89 11-11 11zM22.08 142c.29 2.35 1.76 8 8.92 8h100c.35 0 8.34-.13 9-8z"/><path class="cls-4" d="M33 83h96v52H33z"/><ellipse class="cls-4" cx="81" cy="73.98" rx="13.76" ry="17.2"/><path class="cls-3" d="M81 92.18C72.86 92.18 66.24 84 66.24 74S72.86 55.79 81 55.79 95.76 64 95.76 74 89.14 92.18 81 92.18zm0-34.39c-7 0-12.76 7.26-12.76 16.19S74 90.18 81 90.18 93.76 82.92 93.76 74 88 57.79 81 57.79z"/><path class="cls-2" d="M65.75 71.21h15.37s7.68 0 7.68-7.68c0 0 0 7.68 7.68 7.68v-7.68s0-7.69-7.68-7.69c0 0 0-3.84-3.84-3.84h-7.68s-11.53.58-11.53 11.53z"/><path class="cls-5" d="M98.89 100.61H63.11a5.33 5.33 0 0 0-5.33 5.33V135h46.44v-29.06a5.33 5.33 0 0 0-5.33-5.33z"/><path class="cls-4" d="M74.12 100.61L81 128.12l6.88-27.51H74.12z"/><path class="cls-3" d="M91.86 108.44L81 103l-10.86 5.43V96h21.72zM81 100.77l8.86 4.43V98H72.14v7.24z"/><path class="cls-3" d="M73.52 88.91h2v8.05h-2zm12.96 0h2v8.05h-2z"/><path class="cls-6" d="M151.83 81.67h-31.66V60h31.66zm-29.66-2h27.66V62h-27.66z"/><path class="cls-3" d="M142 91.67h-31.67V70H142zm-29.67-2H140V72h-27.67z"/><path class="cls-6" d="M69.58 25.81a17.52 17.52 0 0 0-34-2.74 11.83 11.83 0 0 0-2.93-.38 11.69 11.69 0 1 0 0 23.37H69.3a10.13 10.13 0 0 0 .28-20.25z"/><path class="cls-3" d="M35 43.5h2v15h-2z"/><path class="cls-3" d="M36 59.91l-4.24-4.24 1.41-1.41L36 57.09l2.83-2.83 1.41 1.41L36 59.91z"/><path class="cls-2" d="M50 51h2v15h-2z"/><path class="cls-2" d="M53.83 55.24L51 52.41l-2.83 2.83-1.41-1.41L51 49.59l4.24 4.24-1.41 1.41zM121 31l-10-10-10 10v20h20V31z"/><path class="cls-3" d="M126.17 49a8.5 8.5 0 1 1 8.5-8.5 8.51 8.51 0 0 1-8.5 8.5zm0-15a6.5 6.5 0 1 0 6.5 6.5 6.51 6.51 0 0 0-6.5-6.5z"/><path class="cls-3" d="M125.17 37.17h2v6.67h-2z"/><path class="cls-3" d="M122.83 39.5h6.67v2h-6.67zM101 44.83a4.33 4.33 0 1 1 4.33-4.33 4.33 4.33 0 0 1-4.33 4.33zm0-6.66a2.33 2.33 0 1 0 2.33 2.33 2.33 2.33 0 0 0-2.33-2.33zM90.86 27a6 6 0 1 1 6-6 6 6 0 0 1-6 6zm0-10a4 4 0 1 0 4 4 4 4 0 0 0-4-4zM69.52 39.28A3.28 3.28 0 1 1 72.8 36a3.28 3.28 0 0 1-3.28 3.28zm0-4.56A1.28 1.28 0 1 0 70.8 36a1.28 1.28 0 0 0-1.28-1.28z"/><path class="cls-3" transform="rotate(-83.29 84.685 38.141)" d="M83.69 25.07h2v26.14h-2z"/><path class="cls-3" transform="rotate(-27.87 96.714 31.292)" d="M95.7 24.45h2v13.7h-2z"/></g></g></svg>