<svg id="Layer_1" data-name="Layer 1" xmlns="http://www.w3.org/2000/svg" viewBox="0 0 200 200"><defs><style>.cls-1{fill:#e3e6ec}.cls-2{fill:#a8abb5}.cls-3{fill:#232939}.cls-4{fill:#f04e23}.cls-5{fill:#008963}</style></defs><title>onas_8</title><path class="cls-1" d="M21 30h-2V19h11v2h-9v9zm9 151H19v-11h2v9h9v2zm151 0h-11v-2h9v-9h2v11zm0-151h-2v-9h-9v-2h11v11zm-71 3.29h10v35h-10z"/><path class="cls-2" d="M120 29.79h40v42h-40z"/><path class="cls-3" d="M154.13 94.79h-2v-44.5a1.5 1.5 0 1 0-3 0v14.17h-4.5V44.29a1.5 1.5 0 1 0-3 0v20.17h-4.5V42.29a1.5 1.5 0 1 0-3 0v22.17h-4.5V47.29a1.5 1.5 0 1 0-3 0v31.14l-6.08-9.76-.56-.83a1.5 1.5 0 0 0-2.78.79 1.47 1.47 0 0 0 .37 1l.08.12 9 14.39v10.65h-2V84.67L116 70.82a3.49 3.49 0 0 1 5-4.8l.12-.07.56.82 2.91 4.66V47.29a3.5 3.5 0 1 1 7 0v15.17h.5V42.29a3.5 3.5 0 1 1 7 0v20.17h.5V44.29a3.5 3.5 0 1 1 7 0v18.17h.5V50.29a3.5 3.5 0 1 1 7 0z"/><path class="cls-1" d="M121.5 94.79h35v10h-35z"/><path class="cls-4" d="M118 104.79h42v65h-42z"/><path class="cls-3" d="M134.5 164.34H90v-2h44.5a1.5 1.5 0 0 0 0-3h-14.17v-4.5h20.17a1.5 1.5 0 0 0 0-3h-20.17v-4.5h22.17a1.5 1.5 0 0 0 0-3h-22.17v-4.5h17.17a1.5 1.5 0 0 0 0-3h-31.13l9.76-6.08.82-.56a1.48 1.48 0 0 0 .72-1.27 1.49 1.49 0 0 0-2.47-1.13l-.11.08-14.4 9H90v-2h10.12l13.88-8.67a3.49 3.49 0 0 1 5.7 2.71 3.46 3.46 0 0 1-.9 2.33l.07.12-.81.56-4.67 2.91h24.11a3.5 3.5 0 0 1 0 7h-15.17v.5h20.17a3.5 3.5 0 0 1 0 7h-20.17v.5h18.17a3.5 3.5 0 0 1 0 7h-18.17v.5h12.17a3.5 3.5 0 0 1 0 7z"/><path class="cls-1" d="M80 131.71h10v35H80z"/><path class="cls-2" d="M40 128.21h40v42H40z"/><path class="cls-3" d="M64.37 160.79a3.5 3.5 0 0 1-3.5-3.5v-20.16h-.5v18.16a3.5 3.5 0 0 1-7 0v-18.16h-.5v12.16a3.5 3.5 0 0 1-7 0v-44.5h2v44.5a1.5 1.5 0 0 0 3 0v-14.16h4.5v20.16a1.5 1.5 0 0 0 3 0v-20.16h4.5v22.16a1.5 1.5 0 1 0 3 0v-22.16h4.5v17.16a1.5 1.5 0 0 0 3 0v-31.13l6.08 9.76.56.82a1.5 1.5 0 0 0 2.78-.78 1.45 1.45 0 0 0-.37-1l-.08-.12-9-14.39v-10.7h2v10.12l8.66 13.9a3.46 3.46 0 0 1 .79 2.19 3.51 3.51 0 0 1-3.5 3.5 3.45 3.45 0 0 1-2.33-.89l-.12.07-.56-.82-2.91-4.67v24.14a3.5 3.5 0 0 1-7 0v-15.16h-.5v20.16a3.5 3.5 0 0 1-3.5 3.5z"/><path class="cls-1" d="M43.5 94.79h35v10h-35z"/><path class="cls-5" d="M40 29.79h42v65H40z"/><path class="cls-3" d="M83.83 74.58a3.5 3.5 0 0 1-3.5-3.5 3.46 3.46 0 0 1 .9-2.33l-.07-.12.81-.56 4.67-2.91H62.5a3.5 3.5 0 0 1 0-7h15.17v-.5H57.5a3.5 3.5 0 0 1 0-7h20.17v-.5H59.5a3.5 3.5 0 0 1 0-7h18.17v-.5H65.5a3.5 3.5 0 0 1 0-7H110v2H65.5a1.5 1.5 0 0 0 0 3h14.17v4.5H59.5a1.5 1.5 0 0 0 0 3h20.17v4.5H57.5a1.5 1.5 0 0 0 0 3h22.17v4.5H62.5a1.5 1.5 0 0 0 0 3h31.13l-9.76 6.08-.82.56a1.48 1.48 0 0 0-.72 1.27 1.49 1.49 0 0 0 2.47 1.13l.11-.08 14.4-9H110v2H99.88L86 73.79a3.51 3.51 0 0 1-2.17.79z"/><circle class="cls-1" cx="100" cy="99.79" r="15"/><path class="cls-3" d="M100 105.46l-5.71-5.71 1.42-1.41 4.29 4.29 9.29-9.29 1.42 1.41L100 105.46z"/></svg>