<?xml version="1.0" encoding="UTF-8"?> <svg xmlns="http://www.w3.org/2000/svg" id="Layer_1" data-name="Layer 1" viewBox="0 0 200 200"> <defs> <style>.cls-1{fill:#e3e6ec;}.cls-2{fill:#a8abb5;}.cls-3{fill:#232939;}.cls-4{fill:#fff;}.cls-5{fill:#00523b;}.cls-6{fill:#008963;}</style> </defs> <title>parytet kopia 2</title> <polygon class="cls-1" points="21.01 31.31 19.01 31.31 19.01 20.31 30.01 20.31 30.01 22.31 21.01 22.31 21.01 31.31"></polygon> <polygon class="cls-1" points="30.01 182.31 19.01 182.31 19.01 171.31 21.01 171.31 21.01 180.31 30.01 180.31 30.01 182.31"></polygon> <polygon class="cls-1" points="181.01 182.31 170.01 182.31 170.01 180.31 179.01 180.31 179.01 171.31 181.01 171.31 181.01 182.31"></polygon> <polygon class="cls-1" points="181.01 31.31 179.01 31.31 179.01 22.31 170.01 22.31 170.01 20.31 181.01 20.31 181.01 31.31"></polygon> <rect class="cls-2" x="45.01" y="97.31" width="110" height="69" rx="3" ry="3"></rect> <path class="cls-3" d="M150,172.31H50c-10.87,0-11-10.89-11-11v-1H161v1C161,172.18,150.12,172.31,150,172.31Zm-108.92-10c.3,2.35,1.76,8,8.92,8H150c.35,0,8.34-.13,9-8Z"></path> <rect class="cls-4" x="52.01" y="103.31" width="96" height="52"></rect> <ellipse class="cls-4" cx="100.01" cy="94.29" rx="13.76" ry="17.2"></ellipse> <path class="cls-3" d="M100,112.49c-8.14,0-14.76-8.16-14.76-18.2s6.62-18.2,14.76-18.2,14.76,8.17,14.76,18.2S108.15,112.49,100,112.49Zm0-34.4c-7,0-12.76,7.27-12.76,16.2S93,110.49,100,110.49s12.76-7.27,12.76-16.2S107.05,78.09,100,78.09Z"></path> <path class="cls-2" d="M84.76,91.51h15.37s7.68,0,7.68-7.68c0,0,0,7.68,7.69,7.68V83.83s0-7.68-7.69-7.68c0,0,0-3.84-3.84-3.84H96.29s-11.53.57-11.53,11.52Z"></path> <path class="cls-5" d="M117.9,120.91H82.13a5.34,5.34,0,0,0-5.34,5.33v29.07h46.44V126.24A5.33,5.33,0,0,0,117.9,120.91Z"></path> <polygon class="cls-4" points="93.13 120.91 100.01 148.43 106.89 120.91 93.13 120.91"></polygon> <path class="cls-3" d="M110.87,128.74,100,123.31l-10.86,5.43V116.27h21.72ZM100,121.08l8.86,4.43v-7.24H91.15v7.24Z"></path> <rect class="cls-3" x="92.53" y="109.22" width="2" height="8.05"></rect> <rect class="cls-3" x="105.49" y="109.22" width="2" height="8.05"></rect> <path class="cls-6" d="M170.84,102H139.18V80.31h31.66Zm-29.66-2h27.66V82.31H141.18Z"></path> <path class="cls-3" d="M161,112H129.34V90.31H161Zm-29.67-2H159V92.31H131.34Z"></path> <path class="cls-6" d="M88.59,46.12a17.51,17.51,0,0,0-33.95-2.74A11.91,11.91,0,0,0,51.7,43a11.69,11.69,0,1,0,0,23.38H88.31a10.13,10.13,0,0,0,.28-20.25Z"></path> <rect class="cls-3" x="54.01" y="63.81" width="2" height="15"></rect> <polygon class="cls-3" points="55.01 80.22 50.77 75.98 52.18 74.56 55.01 77.39 57.84 74.56 59.25 75.98 55.01 80.22"></polygon> <rect class="cls-2" x="69.01" y="71.31" width="2" height="15"></rect> <polygon class="cls-2" points="72.84 75.55 70.01 72.72 67.18 75.55 65.77 74.14 70.01 69.89 74.25 74.14 72.84 75.55"></polygon> <polygon class="cls-2" points="140.01 51.31 130.01 41.31 120.01 51.31 120.01 71.31 140.01 71.31 140.01 51.31"></polygon> <path class="cls-3" d="M145.18,69.31a8.5,8.5,0,1,1,8.5-8.5A8.51,8.51,0,0,1,145.18,69.31Zm0-15a6.5,6.5,0,1,0,6.5,6.5A6.5,6.5,0,0,0,145.18,54.31Z"></path> <rect class="cls-3" x="144.18" y="57.47" width="2" height="6.67"></rect> <rect class="cls-3" x="141.84" y="59.81" width="6.67" height="2"></rect> <path class="cls-3" d="M120,65.14a4.34,4.34,0,1,1,4.34-4.33A4.33,4.33,0,0,1,120,65.14Zm0-6.67a2.34,2.34,0,1,0,2.34,2.34A2.33,2.33,0,0,0,120,58.47Z"></path> <path class="cls-3" d="M109.87,47.31a6,6,0,1,1,6-6A6,6,0,0,1,109.87,47.31Zm0-10a4,4,0,1,0,4,4A4,4,0,0,0,109.87,37.31Z"></path> <path class="cls-3" d="M88.53,59.59a3.28,3.28,0,1,1,3.28-3.28A3.29,3.29,0,0,1,88.53,59.59Zm0-4.56a1.28,1.28,0,1,0,1.28,1.28A1.28,1.28,0,0,0,88.53,55Z"></path> <rect class="cls-3" x="102.7" y="45.38" width="2" height="26.14" transform="translate(33.53 154.6) rotate(-83.29)"></rect> <rect class="cls-3" x="114.71" y="44.76" width="2" height="13.7" transform="translate(-10.7 60.08) rotate(-27.87)"></rect> </svg> 