<?xml version="1.0" encoding="UTF-8"?> <svg xmlns="http://www.w3.org/2000/svg" id="Layer_1" data-name="Layer 1" viewBox="0 0 200 200"> <defs> <style>.cls-1{fill:#e3e6ec;}.cls-2{fill:#fff;}.cls-3{fill:#232939;}.cls-4{fill:#7d8291;}.cls-5{fill:#00523b;}.cls-6{fill:#f04e23;}.cls-7{fill:#008963;}</style> </defs> <title>podpisuj</title> <polygon class="cls-1" points="21 30 19 30 19 19 30 19 30 21 21 21 21 30"></polygon> <polygon class="cls-1" points="30 181 19 181 19 170 21 170 21 179 30 179 30 181"></polygon> <polygon class="cls-1" points="181 181 170 181 170 179 179 179 179 170 181 170 181 181"></polygon> <polygon class="cls-1" points="181 30 179 30 179 21 170 21 170 19 181 19 181 30"></polygon> <circle class="cls-1" cx="100" cy="111" r="50"></circle> <path class="cls-2" d="M105,170a20,20,0,0,1,20-20v-5L105,90H95L75,145v5a20,20,0,0,1,20,20Z"></path> <path class="cls-3" d="M106,170h-2a21,21,0,0,1,20-21v-3.84L104.3,91H95.7L76,145.18V149a21,21,0,0,1,20,21H94a19,19,0,0,0-19-19H74v-6.18l.06-.16L94.3,89h11.4L126,144.82V151h-1A19,19,0,0,0,106,170Z"></path> <rect class="cls-3" x="99" y="90" width="2" height="40"></rect> <path class="cls-3" d="M100,136a3.5,3.5,0,1,1,3.5-3.5A3.5,3.5,0,0,1,100,136Zm0-5a1.5,1.5,0,1,0,1.5,1.5A1.5,1.5,0,0,0,100,131Z"></path> <path class="cls-3" d="M98.9,77.67a24.61,24.61,0,0,0-.41-2.86l2-.39a28.36,28.36,0,0,1,.44,3.07Zm-2.15-8.36a23.14,23.14,0,0,0-1.31-2.58l1.73-1a26.7,26.7,0,0,1,1.41,2.77Z"></path> <path class="cls-3" d="M101.1,77.67l-2-.18a28.36,28.36,0,0,1,.44-3.07l2,.39A24.61,24.61,0,0,0,101.1,77.67Zm2.15-8.36-1.83-.81a26.7,26.7,0,0,1,1.41-2.77l1.73,1A23.14,23.14,0,0,0,103.25,69.31Z"></path> <path class="cls-3" d="M103.5,86h-7V79h7Zm-5-2h3V81h-3Z"></path> <polygon class="cls-4" points="71 141.5 69 141.5 69 141 68.5 141 68.5 139 71 139 71 141.5"></polygon> <path class="cls-4" d="M63,141H60.25v-2H63Zm-8.25,0H52v-2h2.75Z"></path> <polygon class="cls-4" points="46 141.5 44 141.5 44 139 46.5 139 46.5 141 46 141 46 141.5"></polygon> <path class="cls-4" d="M46,158H44v-2.75h2Zm0-8.25H44V147h2Z"></path> <polygon class="cls-4" points="46.5 166 44 166 44 163.5 46 163.5 46 164 46.5 164 46.5 166"></polygon> <path class="cls-4" d="M63,166H60.25v-2H63Zm-8.25,0H52v-2h2.75Z"></path> <polygon class="cls-4" points="71 166 68.5 166 68.5 164 69 164 69 163.5 71 163.5 71 166"></polygon> <path class="cls-4" d="M71,158H69v-2.75h2Zm0-8.25H69V147h2Z"></path> <polygon class="cls-4" points="161 101.5 159 101.5 159 101 158.5 101 158.5 99 161 99 161 101.5"></polygon> <path class="cls-4" d="M152.68,101h-2.91V99h2.91ZM144,101H141V99H144Zm-8.72,0h-2.91V99h2.91Z"></path> <polygon class="cls-4" points="126 101.5 124 101.5 124 99 126.5 99 126.5 101 126 101 126 101.5"></polygon> <path class="cls-4" d="M126,118h-2v-2.75h2Zm0-8.25h-2V107h2Z"></path> <polygon class="cls-4" points="126.5 126 124 126 124 123.5 126 123.5 126 124 126.5 124 126.5 126"></polygon> <path class="cls-4" d="M152.68,126h-2.91v-2h2.91ZM144,126h-2.91v-2H144Zm-8.73,0h-2.91v-2h2.91Z"></path> <polygon class="cls-4" points="161 126 158.5 126 158.5 124 159 124 159 123.5 161 123.5 161 126"></polygon> <path class="cls-4" d="M161,118h-2v-2.75h2Zm0-8.25h-2V107h2Z"></path> <circle class="cls-4" cx="147.5" cy="157.5" r="7.5"></circle> <circle class="cls-5" cx="43.13" cy="125" r="3.13"></circle> <circle class="cls-6" cx="150" cy="40" r="5"></circle> <rect class="cls-3" x="90.67" y="169" width="19.33" height="2"></rect> <circle class="cls-7" cx="62.1" cy="61" r="19.75"></circle> <polygon class="cls-3" points="62.1 69.08 51.4 58.37 52.81 56.96 62.1 66.25 81.4 46.96 82.81 48.37 62.1 69.08"></polygon> </svg> 