<?xml version="1.0" encoding="UTF-8"?> <svg xmlns="http://www.w3.org/2000/svg" id="Layer_1" data-name="Layer 1" viewBox="0 0 200 200"> <defs> <style>.cls-1{fill:#e3e6ec;}.cls-2{fill:#a8abb5;}.cls-3{fill:#232939;}.cls-4{fill:#f04e23;}.cls-5{fill:#008963;}</style> </defs> <title>pytaj_o_czasie</title> <polygon class="cls-1" points="21 30 19 30 19 19 30 19 30 21 21 21 21 30"></polygon> <polygon class="cls-1" points="30 181 19 181 19 170 21 170 21 179 30 179 30 181"></polygon> <polygon class="cls-1" points="181 181 170 181 170 179 179 179 179 170 181 170 181 181"></polygon> <polygon class="cls-1" points="181 30 179 30 179 21 170 21 170 19 181 19 181 30"></polygon> <rect class="cls-2" x="45" y="142.5" width="5" height="22.5"></rect> <rect class="cls-2" x="52" y="120" width="5" height="45"></rect> <rect class="cls-2" x="59" y="97.5" width="5" height="67.5"></rect> <rect class="cls-2" x="66" y="119.67" width="5" height="45.33"></rect> <rect class="cls-2" x="73" y="142.33" width="5" height="22.67"></rect> <rect class="cls-2" x="80" y="120" width="5" height="45"></rect> <rect class="cls-2" x="87" y="75" width="5" height="90"></rect> <rect class="cls-2" x="94" y="52.5" width="5" height="112.5"></rect> <rect class="cls-2" x="150" y="131.25" width="5" height="33.75"></rect> <rect class="cls-2" x="143" y="97.5" width="5" height="67.5"></rect> <rect class="cls-2" x="136" y="30" width="5" height="135"></rect> <rect class="cls-2" x="129" y="49.13" width="5" height="115.88"></rect> <rect class="cls-2" x="122" y="142.33" width="5" height="22.67"></rect> <rect class="cls-2" x="115" y="108.75" width="5" height="56.25"></rect> <rect class="cls-2" x="108" y="75" width="5" height="90"></rect> <rect class="cls-2" x="101" y="63.75" width="5" height="101.25"></rect> <path class="cls-3" d="M100,171a61,61,0,1,1,43.13-17.87A60.56,60.56,0,0,1,100,171Zm0-120a59,59,0,1,0,41.72,17.28A58.62,58.62,0,0,0,100,51Z"></path> <path class="cls-1" d="M100,160a50,50,0,1,0-50-50A50,50,0,0,0,100,160Z"></path> <rect class="cls-3" x="99" y="45" width="2" height="5"></rect> <rect class="cls-1" x="144.39" y="50.61" width="10" height="20" transform="translate(0.9 123.38) rotate(-45)"></rect> <rect class="cls-2" x="140.86" y="56.07" width="10" height="2" transform="translate(2.37 119.85) rotate(-45)"></rect> <rect class="cls-2" x="144.39" y="59.61" width="10" height="2" transform="translate(0.9 123.38) rotate(-45)"></rect> <rect class="cls-2" x="147.93" y="63.14" width="10" height="2" transform="translate(-0.56 126.92) rotate(-45)"></rect> <rect class="cls-3" x="141.72" y="64.86" width="4.85" height="2" transform="translate(-4.35 121.21) rotate(-45)"></rect> <path class="cls-3" d="M100,46a8.5,8.5,0,1,1,8.5-8.5A8.51,8.51,0,0,1,100,46Zm0-15a6.5,6.5,0,1,0,6.5,6.5A6.51,6.51,0,0,0,100,31Z"></path> <path class="cls-3" d="M100,118.5a8.53,8.53,0,0,1-8.31-6.75,8.5,8.5,0,0,1,6.57-10.07,8.69,8.69,0,0,1,1.76-.18,8.53,8.53,0,0,1,8.31,6.76,8.49,8.49,0,0,1-6.57,10.06A8.69,8.69,0,0,1,100,118.5Zm0-15a6.7,6.7,0,0,0-1.34.14,6.5,6.5,0,0,0-5,7.69A6.52,6.52,0,0,0,100,116.5a6,6,0,0,0,1.34-.14,6.49,6.49,0,0,0,5-7.69A6.52,6.52,0,0,0,100,103.5Z"></path> <path class="cls-4" d="M102.53,109.47a2.58,2.58,0,1,1-3.06-2A2.58,2.58,0,0,1,102.53,109.47Z"></path> <path class="cls-5" d="M100,65V95a15,15,0,0,1,14.68,11.92l29.37-6.16A45,45,0,0,0,100,65Z"></path> <rect class="cls-3" x="99" y="57.63" width="2" height="5"></rect> <rect class="cls-3" x="99" y="157.5" width="2" height="5"></rect> <rect class="cls-3" x="147.44" y="109.06" width="5" height="2"></rect> <rect class="cls-3" x="47.56" y="109.06" width="5" height="2"></rect> <rect class="cls-3" x="132.81" y="73.75" width="5" height="2" transform="translate(-13.23 117.57) rotate(-45)"></rect> <rect class="cls-3" x="62.19" y="144.37" width="5" height="2" transform="translate(-83.85 88.32) rotate(-45)"></rect> <rect class="cls-3" x="134.31" y="142.87" width="2" height="5" transform="translate(-63.16 138.26) rotate(-45)"></rect> <rect class="cls-3" x="63.69" y="72.25" width="2" height="5" transform="translate(-33.91 67.64) rotate(-45)"></rect> <rect class="cls-3" x="116.78" y="63" width="5" height="2" transform="translate(14.23 149.37) rotate(-67.32)"></rect> <rect class="cls-3" x="78.22" y="155.13" width="5" height="2" transform="translate(-94.46 170.39) rotate(-67.31)"></rect> <rect class="cls-3" x="145.07" y="126.84" width="2" height="5" transform="translate(-29.65 214.14) rotate(-67.29)"></rect> <rect class="cls-3" x="52.93" y="88.28" width="2" height="5" transform="translate(-50.63 105.48) rotate(-67.29)"></rect> <rect class="cls-3" x="143.71" y="90.12" width="5" height="2" transform="translate(-23.63 62.23) rotate(-22.28)"></rect> <rect class="cls-3" x="51.29" y="128" width="5" height="2" transform="translate(-44.89 30.02) rotate(-22.28)"></rect> <rect class="cls-3" x="117.94" y="153.77" width="2" height="5" transform="translate(-50.38 56.78) rotate(-22.29)"></rect> <rect class="cls-3" x="80.06" y="61.36" width="2" height="5" transform="translate(-18.16 35.51) rotate(-22.29)"></rect> <rect class="cls-3" x="106.85" y="102.7" width="46.33" height="2" transform="translate(-18.51 28.87) rotate(-11.83)"></rect> </svg> 