<?xml version="1.0" encoding="UTF-8"?> <svg xmlns="http://www.w3.org/2000/svg" id="Layer_1" data-name="Layer 1" viewBox="0 0 200 200"> <defs> <style>.cls-1{fill:#e3e6ec;}.cls-2{fill:#232939;}.cls-3{fill:#008963;}.cls-4{fill:#a8abb5;}</style> </defs> <title>sarescript</title> <polygon class="cls-1" points="21 30 19 30 19 19 30 19 30 21 21 21 21 30"></polygon> <polygon class="cls-1" points="30 181 19 181 19 170 21 170 21 179 30 179 30 181"></polygon> <polygon class="cls-1" points="181 181 170 181 170 179 179 179 179 170 181 170 181 181"></polygon> <polygon class="cls-1" points="181 30 179 30 179 21 170 21 170 19 181 19 181 30"></polygon> <circle class="cls-1" cx="137.5" cy="65" r="10"></circle> <rect class="cls-2" x="50" y="54" width="10" height="2"></rect> <rect class="cls-2" x="65" y="54" width="5" height="2"></rect> <rect class="cls-2" x="50" y="59" width="25" height="2"></rect> <rect class="cls-2" x="80" y="59" width="5" height="2"></rect> <rect class="cls-2" x="90" y="59" width="15" height="2"></rect> <rect class="cls-2" x="50" y="64" width="5" height="2"></rect> <rect class="cls-2" x="105" y="64" width="15" height="2"></rect> <rect class="cls-2" x="60" y="64" width="10" height="2"></rect> <rect class="cls-2" x="75" y="64" width="10" height="2"></rect> <rect class="cls-2" x="90.86" y="64" width="10" height="2"></rect> <rect class="cls-2" x="50" y="94" width="10" height="2"></rect> <rect class="cls-2" x="65" y="94" width="5" height="2"></rect> <rect class="cls-2" x="50" y="99" width="25" height="2"></rect> <rect class="cls-2" x="80" y="99" width="5" height="2"></rect> <rect class="cls-2" x="140" y="99" width="5" height="2"></rect> <rect class="cls-2" x="90" y="99" width="45" height="2"></rect> <rect class="cls-2" x="50" y="104" width="5" height="2"></rect> <rect class="cls-2" x="130" y="104" width="10" height="2"></rect> <rect class="cls-2" x="60" y="104" width="10" height="2"></rect> <rect class="cls-2" x="75" y="104" width="10" height="2"></rect> <rect class="cls-2" x="55" y="74" width="10" height="2"></rect> <rect class="cls-2" x="70" y="74" width="15" height="2"></rect> <rect class="cls-2" x="60" y="79" width="20" height="2"></rect> <rect class="cls-2" x="85" y="79" width="10" height="2"></rect> <rect class="cls-2" x="100" y="79" width="10" height="2"></rect> <rect class="cls-2" x="60" y="84" width="5" height="2"></rect> <rect class="cls-2" x="70" y="84" width="5" height="2"></rect> <rect class="cls-2" x="80" y="84" width="10" height="2"></rect> <rect class="cls-2" x="50" y="119" width="10" height="2"></rect> <rect class="cls-2" x="65" y="119" width="15" height="2"></rect> <rect class="cls-2" x="55" y="124" width="20" height="2"></rect> <rect class="cls-2" x="80" y="124" width="10" height="2"></rect> <rect class="cls-2" x="95" y="124" width="10" height="2"></rect> <rect class="cls-2" x="60" y="129" width="7" height="2"></rect> <rect class="cls-2" x="72" y="129" width="3" height="2"></rect> <rect class="cls-2" x="80" y="129" width="10" height="2"></rect> <rect class="cls-2" x="50" y="139" width="13" height="2"></rect> <rect class="cls-2" x="68" y="139" width="12" height="2"></rect> <rect class="cls-2" x="55" y="144" width="23" height="2"></rect> <rect class="cls-2" x="84" y="144" width="8" height="2"></rect> <rect class="cls-2" x="126" y="144" width="8" height="2"></rect> <rect class="cls-2" x="95" y="144" width="25" height="2"></rect> <rect class="cls-2" x="60" y="149" width="7" height="2"></rect> <rect class="cls-2" x="72" y="149" width="7" height="2"></rect> <rect class="cls-2" x="84" y="149" width="10" height="2"></rect> <rect class="cls-3" x="40" y="30" width="120" height="15"></rect> <path class="cls-4" d="M161,171H39V29H161ZM41,169H159V31H41Z"></path> <path class="cls-2" d="M147.5,41a3.5,3.5,0,1,1,3.5-3.5A3.5,3.5,0,0,1,147.5,41Zm0-5a1.5,1.5,0,1,0,1.5,1.5A1.5,1.5,0,0,0,147.5,36Z"></path> <path class="cls-2" d="M137.5,41a3.5,3.5,0,1,1,3.5-3.5A3.5,3.5,0,0,1,137.5,41Zm0-5a1.5,1.5,0,1,0,1.5,1.5A1.5,1.5,0,0,0,137.5,36Z"></path> <path class="cls-2" d="M127.5,41a3.5,3.5,0,1,1,3.5-3.5A3.5,3.5,0,0,1,127.5,41Zm0-5a1.5,1.5,0,1,0,1.5,1.5A1.5,1.5,0,0,0,127.5,36Z"></path> <circle class="cls-3" cx="100" cy="105" r="30"></circle> <polygon class="cls-2" points="89.55 110.89 77.76 105 89.55 99.11 90.45 100.89 82.24 105 90.45 109.11 89.55 110.89"></polygon> <polygon class="cls-2" points="110.45 110.89 109.55 109.11 117.76 105 109.55 100.89 110.45 99.11 122.24 105 110.45 110.89"></polygon> <rect class="cls-2" x="90" y="104" width="20" height="2" transform="translate(-36.98 152.54) rotate(-65.54)"></rect> </svg> 